<?xml version="1.0" encoding="UTF-8"?>
<svg version="1.1" xmlns="http://www.w3.org/2000/svg" width="1024" height="1024">
<path d="M0 0 C337.92 0 675.84 0 1024 0 C1024 337.92 1024 675.84 1024 1024 C686.08 1024 348.16 1024 0 1024 C0 686.08 0 348.16 0 0 Z " fill="#1B9BF6" transform="translate(0,0)"/>
<path d="M0 0 C0.78117188 -0.00067474 1.56234375 -0.00134949 2.3671875 -0.00204468 C37.17744278 0.04565893 72.96630835 8.90325143 102.3125 28.25 C102.88790527 28.62463379 103.46331055 28.99926758 104.05615234 29.38525391 C130.45815386 46.66278802 152.70016531 68.71249902 168.3125 96.25 C168.3125 96.91 168.3125 97.57 168.3125 98.25 C169.67060791 98.22643433 169.67060791 98.22643433 171.05615234 98.20239258 C204.28289624 97.70202796 204.28289624 97.70202796 219.3125 101.25 C220.33730469 101.4665625 221.36210938 101.683125 222.41796875 101.90625 C242.15433442 106.38089161 261.20027026 114.34309703 278.6875 124.4375 C279.32816406 124.80552734 279.96882813 125.17355469 280.62890625 125.55273438 C282.19096119 126.45033311 283.75185295 127.3499556 285.3125 128.25 C285.3125 128.91 285.3125 129.57 285.3125 130.25 C286.02019531 130.49621094 286.72789062 130.74242187 287.45703125 130.99609375 C304.91186411 138.66093828 322.28249661 157.95909119 333.3125 173.25 C334.00279297 174.10464844 334.00279297 174.10464844 334.70703125 174.9765625 C342.16776786 184.30762151 356.3125 203.05264992 356.3125 215.25 C357.15095459 215.22381592 357.98940918 215.19763184 358.85327148 215.1706543 C397.11256787 214.14014478 433.76436783 221.62604186 464.3125 246.25 C465.08722656 246.82492187 465.86195313 247.39984375 466.66015625 247.9921875 C472.1889527 252.18148692 477.14274877 256.87531245 482.0625 261.75 C482.68866211 262.36689697 483.31482422 262.98379395 483.95996094 263.61938477 C488.18924097 267.87733217 491.82859499 272.36834497 495.3125 277.25 C495.9415625 278.11367188 496.570625 278.97734375 497.21875 279.8671875 C509.44259638 297.1843032 517.8818459 315.12619007 522.7265625 335.77978516 C523.22653513 337.88758643 523.77973013 339.98264507 524.34375 342.07421875 C533.10025096 378.92449362 523.84026328 421.12843626 504.63134766 453.12207031 C499.27417884 461.76573625 493.25611076 469.7010646 486.22265625 477.06640625 C484.21943995 479.22474253 484.21943995 479.22474253 482.71875 481.91796875 C481.18582105 484.46007592 479.6335921 485.46085906 477.13671875 486.984375 C474.89078543 488.54258141 473.03774833 490.35974514 471.0625 492.25 C458.50483722 503.6626442 443.80186459 511.5705044 428.3125 518.25 C427.20777344 518.74113281 426.10304688 519.23226562 424.96484375 519.73828125 C418.3697269 522.48695575 411.61374254 524.30829782 404.6875 526 C403.82850098 526.21108398 402.96950195 526.42216797 402.08447266 526.63964844 C390.74142815 529.27374342 379.44362604 529.3982742 367.84313965 529.39044189 C366.29626152 529.39303047 364.74938405 529.39604498 363.2025075 529.3994453 C358.97704686 529.40746072 354.75160326 529.4093018 350.52613592 529.41004276 C345.95877477 529.41190288 341.39142226 529.41945493 336.82406616 529.42617798 C326.84855455 529.43972267 316.87304697 529.4457799 306.89752769 529.45018864 C300.66110017 529.45295745 294.42467417 529.45719593 288.18824768 529.46169281 C270.89901578 529.47388012 253.60978511 529.48418069 236.32054901 529.4875679 C234.66281528 529.48789725 234.66281528 529.48789725 232.97159198 529.48823325 C231.86389436 529.48845153 230.75619675 529.48866981 229.61493254 529.4888947 C227.370567 529.48933816 225.12620147 529.48978472 222.88183594 529.49023438 C221.21193583 529.49056652 221.21193583 529.49056652 219.50830036 529.49090537 C201.48020792 529.49485117 183.45215594 529.51230096 165.42407912 529.5355939 C146.88578409 529.55935145 128.34750934 529.57177174 109.80919886 529.57293582 C99.41238351 529.57385007 89.01562093 529.5795393 78.61882019 529.59775543 C69.76404058 529.61321593 60.90933005 529.61824195 52.0545395 529.61001733 C47.54381363 529.60613188 43.03322661 529.60693645 38.52251816 529.62107468 C3.03274849 529.72584485 -31.60576038 526.58125686 -59.6875 502.25 C-60.1810498 501.82734863 -60.67459961 501.40469727 -61.18310547 500.96923828 C-69.17330033 494.07352491 -75.72853934 487.0062637 -81.6875 478.25 C-82.28949219 477.40308594 -82.89148438 476.55617188 -83.51171875 475.68359375 C-100.08951845 451.28256273 -106.5738222 419.99356727 -101.78125 390.95703125 C-99.63309308 379.8984025 -96.39326401 369.48624954 -91.6875 359.25 C-92.533125 359.01023437 -93.37875 358.77046875 -94.25 358.5234375 C-98.09519397 357.09896791 -101.31525137 355.15994314 -104.6875 352.875 C-105.33686523 352.43800781 -105.98623047 352.00101563 -106.65527344 351.55078125 C-113.19547514 347.05340284 -119.17159634 341.98708995 -125.07373047 336.69189453 C-126.59874406 335.32930296 -128.1445079 333.99003868 -129.69140625 332.65234375 C-135.17044287 327.84389854 -139.93185722 322.83103899 -144.421875 317.0859375 C-146.22721438 314.82615062 -148.0795669 312.70622771 -150.01953125 310.56640625 C-154.06716419 305.96342811 -157.36056116 300.98996286 -160.625 295.8125 C-161.23400146 294.84965088 -161.84300293 293.88680176 -162.47045898 292.89477539 C-167.60689618 284.63531875 -171.94326576 276.21869224 -175.6875 267.25 C-176.15414062 266.14785156 -176.62078125 265.04570312 -177.1015625 263.91015625 C-182.67005994 250.09140034 -186.26575788 235.91667573 -188.6875 221.25 C-188.996875 219.70119141 -188.996875 219.70119141 -189.3125 218.12109375 C-192.89795154 198.22681752 -191.37654309 177.01324956 -187.6875 157.25 C-187.52121094 156.34588379 -187.35492188 155.44176758 -187.18359375 154.51025391 C-183.1367385 133.23803422 -175.43505184 113.9992882 -164.6875 95.25 C-164.28805176 94.55036133 -163.88860352 93.85072266 -163.47705078 93.12988281 C-146.36320348 63.55749121 -120.54748411 39.34430656 -90.48828125 23.21777344 C-89.28851563 22.57299701 -88.09314134 21.91998138 -86.90234375 21.25878906 C-60.49353004 6.64267996 -29.99258359 0.02322017 0 0 Z " fill="#ECF7FE" transform="translate(336.6875,221.75)"/>
<path d="M0 0 C0.78117188 -0.00067474 1.56234375 -0.00134949 2.3671875 -0.00204468 C37.17744278 0.04565893 72.96630835 8.90325143 102.3125 28.25 C102.88790527 28.62463379 103.46331055 28.99926758 104.05615234 29.38525391 C130.45815386 46.66278802 152.70016531 68.71249902 168.3125 96.25 C168.3125 96.91 168.3125 97.57 168.3125 98.25 C166.70761719 98.36214844 166.70761719 98.36214844 165.0703125 98.4765625 C139.28611784 100.57881584 113.06849138 107.14947724 90.4921875 120.0390625 C88.48291602 121.15532443 86.45441512 122.14792543 84.375 123.125 C79.3159247 125.61947475 74.87541895 128.95916755 70.3125 132.25 C68.60564608 133.43962546 66.89733081 134.62715717 65.1875 135.8125 C63.56180904 136.95735279 61.93677499 138.10313917 60.3125 139.25 C59.59964844 139.74242187 58.88679687 140.23484375 58.15234375 140.7421875 C53.77450321 143.86319135 50.39797362 147.26224832 46.95703125 151.38671875 C45.13709611 153.44873552 43.0913033 155.06701711 40.92578125 156.75390625 C37.89918394 159.56065388 35.52410506 162.94971033 33.046875 166.23828125 C32.47453125 166.90214844 31.9021875 167.56601562 31.3125 168.25 C30.6525 168.25 29.9925 168.25 29.3125 168.25 C29.10625 168.91 28.9 169.57 28.6875 170.25 C27.11408871 173.68289737 25.07986788 176.3444763 22.76953125 179.3125 C21.16817468 181.36363491 21.16817468 181.36363491 19.5625 184.25 C19.15 184.91 18.7375 185.57 18.3125 186.25 C17.6525 186.25 16.9925 186.25 16.3125 186.25 C16.044375 187.343125 15.77625 188.43625 15.5 189.5625 C14.3125 193.25 14.3125 193.25 12.8828125 194.67578125 C10.91565989 196.64782727 10.10301922 198.57024072 9 201.125 C7.13397271 205.39262133 5.19254979 209.60836334 3.1875 213.8125 C0.69484792 219.21748537 -1.14558579 224.51441802 -2.6875 230.25 C-3.16316406 231.85294922 -3.16316406 231.85294922 -3.6484375 233.48828125 C-9.70910461 253.97151333 -11.92540009 274.01033736 -12.6875 295.25 C-13.26322754 295.43973389 -13.83895508 295.62946777 -14.43212891 295.82495117 C-28.29269743 300.41499028 -40.92603545 305.69670674 -52.91015625 314.1484375 C-54.6875 315.25 -54.6875 315.25 -56.6875 315.25 C-57.0175 316.24 -57.3475 317.23 -57.6875 318.25 C-59.2109375 319.49609375 -59.2109375 319.49609375 -61.0625 320.6875 C-63.90079608 322.60291453 -65.7058242 324.43393439 -67.6875 327.25 C-68.3475 327.25 -69.0075 327.25 -69.6875 327.25 C-69.6875 327.91 -69.6875 328.57 -69.6875 329.25 C-71.5625 331.375 -71.5625 331.375 -73.6875 333.25 C-74.3475 333.25 -75.0075 333.25 -75.6875 333.25 C-76.1515625 334.425625 -76.1515625 334.425625 -76.625 335.625 C-77.6875 338.25 -77.6875 338.25 -78.6875 340.25 C-79.3475 340.25 -80.0075 340.25 -80.6875 340.25 C-80.93628906 340.76175781 -81.18507813 341.27351563 -81.44140625 341.80078125 C-83.09662621 345.05414461 -84.84705487 348.2502479 -86.625 351.4375 C-87.14610352 352.39946289 -87.14610352 352.39946289 -87.67773438 353.38085938 C-90.34368912 358.13539637 -90.34368912 358.13539637 -93.6875 359.25 C-96.16351208 358.02850071 -98.41791391 356.76904412 -100.75 355.3125 C-101.75981934 354.69169556 -101.75981934 354.69169556 -102.79003906 354.05834961 C-111.70279316 348.48414867 -119.38759676 341.7388853 -127.09375 334.6171875 C-129.28825109 332.61437476 -131.5266298 330.70832092 -133.8125 328.8125 C-137.81799577 325.3394321 -141.04076609 321.34632978 -144.31640625 317.19140625 C-146.16498214 314.89819761 -148.05577906 312.73384361 -150.03125 310.5546875 C-154.07405676 305.95563563 -157.36383039 300.98477779 -160.625 295.8125 C-161.23400146 294.84965088 -161.84300293 293.88680176 -162.47045898 292.89477539 C-167.60689618 284.63531875 -171.94326576 276.21869224 -175.6875 267.25 C-176.15414062 266.14785156 -176.62078125 265.04570312 -177.1015625 263.91015625 C-182.67005994 250.09140034 -186.26575788 235.91667573 -188.6875 221.25 C-188.996875 219.70119141 -188.996875 219.70119141 -189.3125 218.12109375 C-192.89795154 198.22681752 -191.37654309 177.01324956 -187.6875 157.25 C-187.52121094 156.34588379 -187.35492188 155.44176758 -187.18359375 154.51025391 C-183.1367385 133.23803422 -175.43505184 113.9992882 -164.6875 95.25 C-164.28805176 94.55036133 -163.88860352 93.85072266 -163.47705078 93.12988281 C-146.36320348 63.55749121 -120.54748411 39.34430656 -90.48828125 23.21777344 C-89.28851563 22.57299701 -88.09314134 21.91998138 -86.90234375 21.25878906 C-60.49353004 6.64267996 -29.99258359 0.02322017 0 0 Z " fill="#FED300" transform="translate(336.6875,221.75)"/>
<path d="M0 0 C1.14339844 0.00902344 2.28679687 0.01804687 3.46484375 0.02734375 C4.32207031 0.03894531 5.17929687 0.05054688 6.0625 0.0625 C10.46377134 7.88223451 14.57198833 15.41675044 17.078125 24.0859375 C17.90064283 26.57307475 18.84594225 28.72499329 19.9765625 31.07421875 C22.65191644 36.99399362 23.88535204 43.16093431 25.1875 49.5 C25.44611816 50.74410645 25.70473633 51.98821289 25.97119141 53.27001953 C30.2876759 74.56522869 30.89690239 95.15069201 29.25 116.8125 C29.18006836 117.78783691 29.11013672 118.76317383 29.03808594 119.76806641 C28.55311457 125.38967671 27.54268524 130.46672699 25.74414062 135.81884766 C24.71413576 139.20915736 24.38858656 142.54076514 24.0625 146.0625 C23.4025 146.0625 22.7425 146.0625 22.0625 146.0625 C21.95292969 146.77535156 21.84335937 147.48820313 21.73046875 148.22265625 C20.77937089 153.96790594 19.53204446 158.80129659 17.0625 164.0625 C16.68941369 165.38526056 16.33203585 166.71482077 16.0625 168.0625 C15.4025 168.0625 14.7425 168.0625 14.0625 168.0625 C13.959375 168.743125 13.85625 169.42375 13.75 170.125 C12.92626374 173.6446004 11.54862983 176.78655294 10.0625 180.0625 C9.33286124 181.7081241 8.60370181 183.3539608 7.875 185 C7.27129754 186.35437368 6.66729685 187.70861467 6.0625 189.0625 C5.4025 189.0625 4.7425 189.0625 4.0625 189.0625 C3.96710938 189.61035156 3.87171875 190.15820312 3.7734375 190.72265625 C2.87044517 193.69459254 1.39249807 195.90653246 -0.3125 198.5 C-2.11013708 201.25000226 -3.89284163 203.98728591 -5.5703125 206.8125 C-6.8633145 208.94041187 -8.15375151 210.35307436 -9.9375 212.0625 C-10.453125 212.784375 -10.96875 213.50625 -11.5 214.25 C-11.974375 214.848125 -12.44875 215.44625 -12.9375 216.0625 C-13.5975 216.0625 -14.2575 216.0625 -14.9375 216.0625 C-14.9375 216.7225 -14.9375 217.3825 -14.9375 218.0625 C-16.3125 219.6875 -16.3125 219.6875 -17.9375 221.0625 C-18.5975 221.0625 -19.2575 221.0625 -19.9375 221.0625 C-19.9375 222.0525 -19.9375 223.0425 -19.9375 224.0625 C-20.9275 224.0625 -21.9175 224.0625 -22.9375 224.0625 C-23.03289062 224.65933594 -23.12828125 225.25617188 -23.2265625 225.87109375 C-24.09165655 228.53767485 -25.13335533 229.40099314 -27.3125 231.125 C-29.16372336 232.60991746 -30.90190121 234.02507786 -32.5390625 235.74609375 C-33.9375 237.0625 -33.9375 237.0625 -35.9375 237.0625 C-35.9375 238.0525 -35.9375 239.0425 -35.9375 240.0625 C-38.9075 241.0525 -38.9075 241.0525 -41.9375 242.0625 C-41.9375 242.7225 -41.9375 243.3825 -41.9375 244.0625 C-42.8965625 244.495625 -42.8965625 244.495625 -43.875 244.9375 C-46.08956079 245.89073451 -46.08956079 245.89073451 -46.9375 248.0625 C-47.5975 248.0625 -48.2575 248.0625 -48.9375 248.0625 C-48.9375 248.7225 -48.9375 249.3825 -48.9375 250.0625 C-52.34402872 253.26864467 -55.45150257 254.81059374 -59.9375 256.0625 C-59.9375 256.7225 -59.9375 257.3825 -59.9375 258.0625 C-61.5875 258.0625 -63.2375 258.0625 -64.9375 258.0625 C-64.9375 258.7225 -64.9375 259.3825 -64.9375 260.0625 C-66.2575 260.0625 -67.5775 260.0625 -68.9375 260.0625 C-68.9375 260.7225 -68.9375 261.3825 -68.9375 262.0625 C-70.99571081 263.21666506 -73.05849472 264.36085847 -75.125 265.5 C-76.27355469 266.13808594 -77.42210937 266.77617188 -78.60546875 267.43359375 C-81.5574993 268.87673178 -83.77001891 269.44559288 -86.9375 270.0625 C-88.6053918 271.06045526 -90.27191492 272.06069956 -91.9375 273.0625 C-94.43447815 273.97715395 -96.90433474 274.82993724 -99.4375 275.625 C-104.56177705 277.25383519 -104.56177705 277.25383519 -109.59375 279.14453125 C-112.03579887 280.10100039 -114.36619254 280.68127384 -116.9375 281.1875 C-117.7625 281.35507812 -118.5875 281.52265625 -119.4375 281.6953125 C-121.9375 282.0625 -121.9375 282.0625 -124.6015625 282.0546875 C-127.00817199 281.91285609 -127.00817199 281.91285609 -129.3125 283.0625 C-132.60830635 284.31804528 -135.43926719 284.12977371 -138.9375 284.0625 C-139.2675 284.3925 -139.5975 284.7225 -139.9375 285.0625 C-141.43486724 285.16605807 -142.93705946 285.20101013 -144.43798828 285.20776367 C-145.87550949 285.21733345 -145.87550949 285.21733345 -147.34207153 285.22709656 C-148.90911331 285.22876579 -148.90911331 285.22876579 -150.5078125 285.23046875 C-152.11219681 285.23546135 -152.11219681 285.23546135 -153.74899292 285.24055481 C-156.02048308 285.24563096 -158.29198074 285.24796292 -160.56347656 285.24780273 C-164.02681982 285.24997759 -167.48983867 285.2680939 -170.953125 285.28710938 C-173.15885308 285.29004554 -175.36458267 285.29202884 -177.5703125 285.29296875 C-179.1191362 285.30374702 -179.1191362 285.30374702 -180.69924927 285.31474304 C-186.21202137 285.29738763 -190.72038503 284.83883226 -195.9375 283.0625 C-197.32680869 282.75409775 -198.72092187 282.46551421 -200.12109375 282.2109375 C-201.17006836 282.01757812 -201.17006836 282.01757812 -202.24023438 281.8203125 C-203.29694336 281.63082031 -203.29694336 281.63082031 -204.375 281.4375 C-205.10654297 281.3034375 -205.83808594 281.169375 -206.59179688 281.03125 C-208.37313697 280.70525312 -210.15524098 280.383435 -211.9375 280.0625 C-211.9375 279.4025 -211.9375 278.7425 -211.9375 278.0625 C-213.113125 277.959375 -214.28875 277.85625 -215.5 277.75 C-219.70778723 277.2332542 -223.05062212 275.767271 -226.9375 274.0625 C-229.91624971 273.27962347 -232.91374366 272.64531018 -235.9375 272.0625 C-235.9375 271.4025 -235.9375 270.7425 -235.9375 270.0625 C-237.2575 270.0625 -238.5775 270.0625 -239.9375 270.0625 C-239.9375 269.4025 -239.9375 268.7425 -239.9375 268.0625 C-241.2575 268.0625 -242.5775 268.0625 -243.9375 268.0625 C-243.9375 267.4025 -243.9375 266.7425 -243.9375 266.0625 C-244.453125 265.959375 -244.96875 265.85625 -245.5 265.75 C-248.79776435 264.81986134 -251.80383332 263.44854488 -254.9375 262.0625 C-253.47293172 258.09351997 -251.58975783 254.5762749 -249.4375 250.9375 C-248.8290625 249.90367187 -248.220625 248.86984375 -247.59375 247.8046875 C-246.42059669 245.86234404 -245.19619124 243.95053686 -243.9375 242.0625 C-243.2775 242.0625 -242.6175 242.0625 -241.9375 242.0625 C-241.710625 241.36125 -241.48375 240.66 -241.25 239.9375 C-239.59908712 236.32121465 -237.6466165 233.97480024 -234.9375 231.0625 C-234.2775 231.0625 -233.6175 231.0625 -232.9375 231.0625 C-232.9375 230.4025 -232.9375 229.7425 -232.9375 229.0625 C-229.82141145 225.56870374 -226.44194126 222.87318664 -222.5859375 220.2734375 C-220.90694599 219.11017408 -220.90694599 219.11017408 -219.54736328 217.63085938 C-208.30650726 206.67980401 -191.73389094 200.92900216 -176.9375 197.0625 C-176.90011719 195.79019531 -176.86273438 194.51789063 -176.82421875 193.20703125 C-176.23592297 176.37272117 -174.27749282 160.09841668 -170.4375 143.6875 C-170.23608398 142.82576172 -170.03466797 141.96402344 -169.82714844 141.07617188 C-168.61289432 136.13729557 -167.03097174 131.69437753 -164.9375 127.0625 C-164.43537337 125.61191196 -163.9524197 124.15435146 -163.5 122.6875 C-160.15023683 112.44827548 -155.48980659 101.62099035 -148.9375 93.0625 C-148.22587557 91.41452764 -147.54718047 89.75084592 -146.9375 88.0625 C-146.2775 88.0625 -145.6175 88.0625 -144.9375 88.0625 C-144.69644531 87.3715625 -144.45539063 86.680625 -144.20703125 85.96875 C-142.71353987 82.54980359 -140.75818776 79.60185182 -138.625 76.5625 C-138.24666016 76.00691406 -137.86832031 75.45132813 -137.47851562 74.87890625 C-134.9343177 71.21973833 -132.13463999 68.15423977 -128.9375 65.0625 C-127.42609657 63.40616747 -125.92588194 61.73955008 -124.4375 60.0625 C-115.69122077 50.31374026 -115.69122077 50.31374026 -111.9375 49.0625 C-111.2565945 47.73638163 -110.59125851 46.40220968 -109.9375 45.0625 C-108.34375 43.60546875 -108.34375 43.60546875 -106.4375 42.25 C-105.72078125 41.73566406 -105.0040625 41.22132813 -104.265625 40.69140625 C-103.49734375 40.15386719 -102.7290625 39.61632812 -101.9375 39.0625 C-100.78507812 38.24072266 -100.78507812 38.24072266 -99.609375 37.40234375 C-97.06597677 35.60145371 -94.50588392 33.82757303 -91.9375 32.0625 C-90.38869141 30.99708984 -90.38869141 30.99708984 -88.80859375 29.91015625 C-87.75800781 29.19730469 -86.70742188 28.48445313 -85.625 27.75 C-84.65949219 27.09386719 -83.69398438 26.43773437 -82.69921875 25.76171875 C-80.13560099 24.18438675 -77.74118563 23.12702439 -74.9375 22.0625 C-73.03372684 21.12003804 -71.13827979 20.16063218 -69.25 19.1875 C-64.73493311 16.91344802 -60.22821203 14.84734824 -55.50390625 13.05078125 C-53.76592664 12.38151361 -52.04413816 11.66888343 -50.33984375 10.91796875 C-35.0873783 4.4515803 -16.58602856 -0.17098999 0 0 Z " fill="#FEFADA" transform="translate(499.9375,319.9375)"/>
<path d="M0 0 C3.53571429 0.53571429 3.53571429 0.53571429 5 2 C6.83488063 2.09754084 8.67356941 2.12371382 10.51104069 2.12304783 C11.71480321 2.12503888 12.91856573 2.12702993 14.15880591 2.12908131 C15.51180036 2.12622772 16.86479462 2.12328211 18.2177887 2.12025452 C19.64170807 2.12069009 21.06562737 2.12156475 22.48954624 2.12284368 C26.42083999 2.12509131 30.35210677 2.12106372 34.28339708 2.11606562 C38.51586622 2.11176513 42.74833373 2.11320726 46.98080444 2.1139679 C54.31998114 2.11449339 61.65914897 2.11134397 68.99832344 2.10573006 C79.60966396 2.09761844 90.22100017 2.09500019 100.83234345 2.09374207 C118.04667866 2.09155101 135.26100915 2.08488948 152.4753418 2.07543945 C169.20190406 2.06626671 185.92846503 2.05918521 202.6550293 2.05493164 C204.20040542 2.05453756 204.20040542 2.05453756 205.77700127 2.05413551 C210.94523521 2.05283051 216.11346916 2.0515668 221.28170311 2.05032361 C264.18780535 2.03994933 307.09390243 2.02232957 350 2 C350 1.67 350 1.34 350 1 C351.8871875 0.938125 351.8871875 0.938125 353.8125 0.875 C354.87404297 0.84019531 354.87404297 0.84019531 355.95703125 0.8046875 C358 1 358 1 361 3 C357.23699626 4.25433458 353.72789091 4.10695422 349.8125 4.0625 C349.06291016 4.05798828 348.31332031 4.05347656 347.54101562 4.04882812 C345.69397617 4.03706354 343.84697787 4.01912865 342 4 C341.67 4.99 341.34 5.98 341 7 C297.35490495 7.06861186 253.70981559 7.12150117 210.06467728 7.15319599 C204.91624635 7.15694827 199.76781553 7.16083122 194.61938477 7.16479492 C193.59439083 7.16558185 192.56939689 7.16636878 191.51334254 7.16717956 C174.89961302 7.1802465 158.28591453 7.20390741 141.67220344 7.23145839 C124.63499393 7.2594768 107.59780071 7.2761687 90.56056911 7.28226548 C80.04101225 7.28638934 69.52154307 7.29943117 59.00201318 7.3237494 C51.79608755 7.33956263 44.59020749 7.34441041 37.38426574 7.34050413 C33.22191118 7.33857568 29.05971023 7.3416073 24.89738274 7.35761642 C21.09082378 7.3721509 17.2845226 7.37299478 13.4779521 7.36269668 C12.09701441 7.3614228 10.71606101 7.36528304 9.3351545 7.37464955 C7.46544082 7.38659956 5.59563034 7.37844426 3.7259016 7.36914349 C2.68508818 7.37028265 1.64427475 7.37142181 0.57192153 7.37259549 C-2.34291217 6.95032215 -3.22725844 6.29239225 -5 4 C-4.01 4 -3.02 4 -2 4 C-2 3.34 -2 2.68 -2 2 C-1.34 1.34 -0.68 0.68 0 0 Z " fill="#F9FDFC" transform="translate(354,744)"/>
<path d="M0 0 C1.63452499 4.5403472 0.62130941 8.85365841 -0.6875 13.375 C-2 15 -2 15 -5.125 15.75 C-6.07375 15.8325 -7.0225 15.915 -8 16 C-7.505 19.465 -7.505 19.465 -7 23 C-8.32 23 -9.64 23 -11 23 C-11 22.34 -11 21.68 -11 21 C-14.28814599 23.72606304 -14.28814599 23.72606304 -15.25 27.75 C-15.1675 28.4925 -15.085 29.235 -15 30 C-18 31 -18 31 -21 31 C-22.56406528 31.15127402 -24.12659252 31.31902522 -25.6875 31.5 C-26.49574219 31.5928125 -27.30398438 31.685625 -28.13671875 31.78125 C-28.75160156 31.8534375 -29.36648438 31.925625 -30 32 C-30.33 34.31 -30.66 36.62 -31 39 C-33.31 39 -35.62 39 -38 39 C-38.66 40.98 -39.32 42.96 -40 45 C-40.66 45 -41.32 45 -42 45 C-42.33 45.66 -42.66 46.32 -43 47 C-46.63 47 -50.26 47 -54 47 C-54.33 49.31 -54.66 51.62 -55 54 C-61.625 55.125 -61.625 55.125 -65 54 C-66.99673484 53.64763503 -68.99650739 53.31165441 -71 53 C-68.68148687 50.68148687 -66.86511218 50.05320119 -63.8125 48.875 C-47.50328481 42.19153427 -32.85916232 33.11461161 -20.18359375 20.8125 C-17.87719119 18.89806209 -15.76931126 18.07827385 -13 17 C-12.71125 16.278125 -12.4225 15.55625 -12.125 14.8125 C-10.69174587 11.22936466 -8.51402478 9.34819274 -5.75390625 6.71484375 C-3.62281993 4.63122037 -1.79815721 2.37356751 0 0 Z " fill="#23B7F6" transform="translate(831,689)"/>
<path d="M0 0 C5.28 0 10.56 0 16 0 C16 2.64 16 5.28 16 8 C18.64 8 21.28 8 24 8 C24 10.64 24 13.28 24 16 C26.64 16 29.28 16 32 16 C32 18.64 32 21.28 32 24 C34.64 24 37.28 24 40 24 C40 26.31 40 28.62 40 31 C43.26352314 32.26352314 43.26352314 32.26352314 48 32 C48 36.95 48 41.9 48 47 C44.42788189 43.42788189 41.29691222 40.00836916 38.125 36.125 C28.46596843 24.56224167 17.87772829 14.21932222 5.828125 5.171875 C3 3 3 3 0 0 Z " fill="#207FEF" transform="translate(448,256)"/>
<path d="M0 0 C2.10388569 -0.05402274 4.20816714 -0.09280256 6.3125 -0.125 C8.07013672 -0.15980469 8.07013672 -0.15980469 9.86328125 -0.1953125 C13 0 13 0 16 2 C16 1.34 16 0.68 16 0 C16.86625 0.185625 17.7325 0.37125 18.625 0.5625 C22.14972661 1.019409 24.5070296 0.58216173 28 0 C32.00137201 -0.09233935 35.99823453 -0.05827814 40 0 C40 0.66 40 1.32 40 2 C40.5662207 1.67402832 41.13244141 1.34805664 41.71582031 1.01220703 C44.21950977 -0.09727314 45.82657918 -0.23207325 48.546875 -0.1953125 C49.81337891 -0.18564453 49.81337891 -0.18564453 51.10546875 -0.17578125 C51.97816406 -0.15902344 52.85085938 -0.14226562 53.75 -0.125 C54.63816406 -0.11597656 55.52632813 -0.10695312 56.44140625 -0.09765625 C58.62788058 -0.07414577 60.81380094 -0.04128499 63 0 C63.495 3.465 63.495 3.465 64 7 C60.42624038 8.06316146 57.63594785 7.73567169 53.94824219 7.26660156 C47.97662737 6.72660459 41.96361168 6.85332604 35.97167969 6.86962891 C33.63730323 6.87497184 31.30312049 6.86966736 28.96875 6.86328125 C20.92593553 6.86007311 12.99846828 7.04035868 5 8 C5 6.68 5 5.36 5 4 C4.360625 3.896875 3.72125 3.79375 3.0625 3.6875 C2.381875 3.460625 1.70125 3.23375 1 3 C0.67 2.01 0.34 1.02 0 0 Z " fill="#1E78F2" transform="translate(304,216)"/>
<path d="M0 0 C6.6 0 13.2 0 20 0 C20 2.31 20 4.62 20 7 C23.13723892 8.04574631 25.28038753 8.06992517 28.5625 8 C33.77834395 7.88917197 33.77834395 7.88917197 36 9 C36 10.98 36 12.96 36 15 C38.92824652 15.97608217 40.95613276 16.08226668 44 16 C44 18.64 44 21.28 44 24 C42.4991131 23.18913949 40.99938395 22.37613629 39.5 21.5625 C38.49195313 21.0159375 37.48390625 20.469375 36.4453125 19.90625 C34.04459445 18.57796156 31.67019484 17.23131749 29.3046875 15.84375 C19.837602 10.32683926 10.22320869 5.93492315 0 2 C0 1.34 0 0.68 0 0 Z " fill="#207DEE" transform="translate(404,232)"/>
<path d="M0 0 C7.26 0 14.52 0 22 0 C22 2.64 22 5.28 22 8 C23.65614657 8.38218767 25.32457024 8.71395102 27 9 C27.33 8.67 27.66 8.34 28 8 C30.9375 7.8125 30.9375 7.8125 34 8 C34.66 8.66 35.32 9.32 36 10 C36.66 10 37.32 10 38 10 C37.67 11.65 37.34 13.3 37 15 C40.153368 15.70074844 42.72724974 16 46 16 C46 17.65 46 19.3 46 21 C44.3359375 21.6875 44.3359375 21.6875 42 22 C39.4765625 20.8125 39.4765625 20.8125 36.625 19 C24.89034198 11.85407629 12.90158244 6.57419741 0 2 C0 1.34 0 0.68 0 0 Z " fill="#1E87F3" transform="translate(578,328)"/>
<path d="M0 0 C2.64 0.33 5.28 0.66 8 1 C8 3.31 8 5.62 8 8 C16.91 8 25.82 8 35 8 C34.34 8.66 33.68 9.32 33 10 C33 10.99 33 11.98 33 13 C33.99 13.33 34.98 13.66 36 14 C36 14.66 36 15.32 36 16 C12.54888773 18.38996911 12.54888773 18.38996911 6.83789062 14.54394531 C3.63915022 10.9267317 0 4.99159405 0 0 Z " fill="#2E8FF4" transform="translate(496,304)"/>
<path d="M0 0 C0.99 0.33 1.98 0.66 3 1 C2.46890625 2.12277344 1.9378125 3.24554688 1.390625 4.40234375 C-0.43041421 8.25686237 -2.24376859 12.11492957 -4.05175781 15.97558594 C-4.76957288 17.50805826 -5.48970778 19.03944425 -6.2109375 20.5703125 C-9.56111474 27.87198085 -12.2266272 35.46567055 -15 43 C-17.45811625 39.31282562 -17.31118164 37.35654296 -17 33 C-16.34 32.01 -15.68 31.02 -15 30 C-15.66 29.67 -16.32 29.34 -17 29 C-17.1953125 22.9453125 -17.1953125 22.9453125 -17 21 C-16.34 20.34 -15.68 19.68 -15 19 C-13.02 19 -11.04 19 -9 19 C-9 13.72 -9 8.44 -9 3 C-6.36 3 -3.72 3 -1 3 C-0.67 2.01 -0.34 1.02 0 0 Z " fill="#1F86F0" transform="translate(169,317)"/>
<path d="M0 0 C15.25613757 9.39689633 34.2010002 25.44551929 42 42 C38.535 42.495 38.535 42.495 35 43 C34.979375 41.906875 34.95875 40.81375 34.9375 39.6875 C34.628125 38.470625 34.31875 37.25375 34 36 C31.68191636 34.96514123 29.34824702 33.9644586 27 33 C26.0625 29.8125 26.0625 29.8125 26 27 C24.576875 27.0928125 24.576875 27.0928125 23.125 27.1875 C22.09375 27.125625 21.0625 27.06375 20 27 C17.67116526 23.5067479 18 22.07077422 18 18 C17.34 17.01 16.68 16.02 16 15 C15.01 15.495 15.01 15.495 14 16 C12.5 14.625 12.5 14.625 11 13 C11 12.34 11 11.68 11 11 C7.86650268 9.95550089 7.01031744 10.06576355 4 11 C4 10.34 4 9.68 4 9 C3.34 9 2.68 9 2 9 C2.04125 8.2575 2.0825 7.515 2.125 6.75 C1.99456362 3.88039954 1.3454765 2.47906694 0 0 Z M4 6 C4 6.99 4 7.98 4 9 C4.66 9 5.32 9 6 9 C5.67 8.01 5.34 7.02 5 6 C4.67 6 4.34 6 4 6 Z M29 28 C28.01 29.485 28.01 29.485 27 31 C28.32 30.67 29.64 30.34 31 30 C30.34 29.34 29.68 28.68 29 28 Z " fill="#CDE8F9" transform="translate(630,357)"/>
<path d="M0 0 C3.40950577 0.52453935 5.88367907 0.09845705 9.25 -0.5 C10.24 -0.17 11.23 0.16 12.25 0.5 C14.24892754 0.24207387 16.24776263 -0.01789345 18.2421875 -0.30859375 C20.73347035 -0.54608959 22.8501844 -0.17494814 25.25 0.5 C25.25 0.83 25.25 1.16 25.25 1.5 C24.18265625 1.70753906 23.1153125 1.91507813 22.015625 2.12890625 C10.01906925 4.57043002 -1.29367278 8.21695813 -12.75 12.5 C-13.52956055 12.79116699 -14.30912109 13.08233398 -15.11230469 13.38232422 C-16.99229767 14.08618632 -18.87126486 14.79278734 -20.75 15.5 C-20.75 12.86 -20.75 10.22 -20.75 7.5 C-15.47 7.5 -10.19 7.5 -4.75 7.5 C-4.75 5.19 -4.75 2.88 -4.75 0.5 C-2.75 -0.5 -2.75 -0.5 0 0 Z " fill="#1F7CEE" transform="translate(276.75,224.5)"/>
<path d="M0 0 C3.12424363 1.38845696 5.26295846 3.00625363 7.6796875 5.4140625 C8.36160156 6.09339844 9.04351563 6.77273438 9.74609375 7.47265625 C10.44863281 8.18292969 11.15117188 8.89320313 11.875 9.625 C12.56980469 10.31207031 13.26460937 10.99914062 13.98046875 11.70703125 C19.82616015 17.57474032 24.92840446 23.76160793 29 31 C25.88776587 31.21219778 23.64960815 31.31552396 20.8125 29.9375 C19 28 19 28 17.5625 24.375 C17.046875 23.26125 16.53125 22.1475 16 21 C13.42267086 19.94832473 13.42267086 19.94832473 11 20 C10.34 17.69 9.68 15.38 9 13 C8.401875 13.33 7.80375 13.66 7.1875 14 C5 15 5 15 2 15 C2.66 12.69 3.32 10.38 4 8 C3.67 8.33 3.34 8.66 3 9 C2.31292445 6.50935112 2 4.62113708 2 2 C1.34 2 0.68 2 0 2 C0 1.34 0 0.68 0 0 Z M10 13 C10 13.66 10 14.32 10 15 C10.66 14.67 11.32 14.34 12 14 C11.34 13.67 10.68 13.34 10 13 Z " fill="#D9EEFB" transform="translate(806,473)"/>
<path d="M0 0 C2.97 0.495 2.97 0.495 6 1 C6 3.64 6 6.28 6 9 C6.61875 8.835 7.2375 8.67 7.875 8.5 C10 8 10 8 12 8 C13.25664978 10.90600261 14 12.79604584 14 16 C16.64 16 19.28 16 22 16 C22 18.64 22 21.28 22 24 C23.32 24.33 24.64 24.66 26 25 C26.66 27.31 27.32 29.62 28 32 C27.34 32.66 26.68 33.32 26 34 C25.33871094 33.12214844 25.33871094 33.12214844 24.6640625 32.2265625 C20.80792942 27.30666857 16.84844958 22.78595297 12.359375 18.4375 C11.54130371 17.6439209 10.72323242 16.8503418 9.88037109 16.03271484 C8.2190974 14.43619554 6.54497112 12.85293628 4.85791016 11.28369141 C4.08753418 10.54296387 3.3171582 9.80223633 2.5234375 9.0390625 C1.82138184 8.38115723 1.11932617 7.72325195 0.39599609 7.04541016 C-1 5 -1 5 -0.72021484 2.24755859 C-0.48254395 1.50586426 -0.24487305 0.76416992 0 0 Z " fill="#1F8BF1" transform="translate(642,360)"/>
<path d="M0 0 C13.59012327 0.43839107 26.94918534 6.00113631 39 12 C39 12.66 39 13.32 39 14 C38.34 14 37.68 14 37 14 C36.67 14.66 36.34 15.32 36 16 C33.525 15.505 33.525 15.505 31 15 C31 15.33 31 15.66 31 16 C28.69 15.67 26.38 15.34 24 15 C24 13.68 24 12.36 24 11 C24.99 11 25.98 11 27 11 C26.67 10.01 26.34 9.02 26 8 C20.39 7.67 14.78 7.34 9 7 C9 7.33 9 7.66 9 8 C7.35 8 5.7 8 4 8 C3.67 5.69 3.34 3.38 3 1 C2.01 0.67 1.02 0.34 0 0 Z " fill="#D4EBFA" transform="translate(736,440)"/>
<path d="M0 0 C0.66 0 1.32 0 2 0 C3.25710393 7.80410119 3.19563262 15.61678265 3.1875 23.5 C3.1882251 24.21188477 3.1889502 24.92376953 3.18969727 25.65722656 C3.18854244 35.88899378 2.85862046 45.91034606 1 56 C0.67 56 0.34 56 0 56 C0.00580078 55.22760986 0.01160156 54.45521973 0.01757812 53.65942383 C0.05248701 45.32305635 -0.16301832 37.01641203 -0.5 28.6875 C-0.54769531 27.45837891 -0.59539063 26.22925781 -0.64453125 24.96289062 C-0.76078516 21.97516512 -0.87930393 18.98754877 -1 16 C-0.34 16 0.32 16 1 16 C0.67 15.01 0.34 14.02 0 13 C-0.66 13 -1.32 13 -2 13 C-1.85966889 11.02043559 -1.7125877 9.04134859 -1.5625 7.0625 C-1.48128906 5.96035156 -1.40007813 4.85820313 -1.31640625 3.72265625 C-1 1 -1 1 0 0 Z " fill="#E2F5FC" transform="translate(860,568)"/>
<path d="M0 0 C10.13769061 4.73585547 20.19043569 9.75798425 28 18 C26.02 18.99 26.02 18.99 24 20 C23.67 19.01 23.34 18.02 23 17 C20.69 17.33 18.38 17.66 16 18 C15.67 15.69 15.34 13.38 15 11 C10.89776415 9.98459888 10.89776415 9.98459888 7 11 C6.01 11 5.02 11 4 11 C1.42841613 8.42841613 0.85117156 7.5110827 0 4 C-0.33 3.34 -0.66 2.68 -1 2 C-0.67 1.34 -0.34 0.68 0 0 Z " fill="#D3ECFB" transform="translate(776,453)"/>
<path d="M0 0 C0.598125 0.185625 1.19625 0.37125 1.8125 0.5625 C4.16408762 1.22093687 4.16408762 1.22093687 7 0 C8.56118428 -0.06740865 10.1250252 -0.08514456 11.6875 -0.0625 C12.89986328 -0.04896484 12.89986328 -0.04896484 14.13671875 -0.03515625 C15.05904297 -0.01775391 15.05904297 -0.01775391 16 0 C13.00736814 3.20690144 9.86351751 5.55445913 6.1875 7.9375 C2.67972005 10.23170816 -0.79914143 12.53254387 -4.1875 15 C-7 17 -7 17 -8 17 C-8 14.36 -8 11.72 -8 9 C-5.10765685 8.17361624 -3.11257569 8 0 8 C0 5.36 0 2.72 0 0 Z " fill="#207DED" transform="translate(224,248)"/>
<path d="M0 0 C2.64 0 5.28 0 8 0 C6.20827627 4.14596538 3.44933934 7.54281262 0.75 11.125 C-3.5414464 16.88603321 -7.49644891 22.71726071 -11 29 C-12 26 -12 26 -11.22265625 24.30859375 C-10.83980469 23.69113281 -10.45695313 23.07367188 -10.0625 22.4375 C-7.4654664 17.64503593 -7.60655361 13.33338438 -8 8 C-5.36 7.67 -2.72 7.34 0 7 C0 4.69 0 2.38 0 0 Z " fill="#2081EF" transform="translate(184,288)"/>
<path d="M0 0 C-0.33 0.66 -0.66 1.32 -1 2 C-2.98 2 -4.96 2 -7 2 C-3.535 3.485 -3.535 3.485 0 5 C-0.33 5.66 -0.66 6.32 -1 7 C-1.99 6.67 -2.98 6.34 -4 6 C-4 6.66 -4 7.32 -4 8 C-4.93972656 7.87431641 -4.93972656 7.87431641 -5.8984375 7.74609375 C-7.12433594 7.59333984 -7.12433594 7.59333984 -8.375 7.4375 C-9.18710937 7.33308594 -9.99921875 7.22867187 -10.8359375 7.12109375 C-13.04899186 6.81762672 -13.04899186 6.81762672 -15 8 C-15 7.01 -15 6.02 -15 5 C-15.33 5.66 -15.66 6.32 -16 7 C-20.29 7 -24.58 7 -29 7 C-29 6.01 -29 5.02 -29 4 C-26.8131784 3.51774669 -24.62550745 3.03934417 -22.4375 2.5625 C-21.21933594 2.29566406 -20.00117188 2.02882813 -18.74609375 1.75390625 C-12.38911362 0.47455571 -6.45753504 -0.11329009 0 0 Z " fill="#FDF6C1" transform="translate(501,320)"/>
<path d="M0 0 C4.06191541 3.56126072 6.46324541 7.81299758 9.125 12.4375 C9.56714844 13.18837891 10.00929688 13.93925781 10.46484375 14.71289062 C12.60730924 18.39262366 14.57394205 21.97018456 16 26 C11.32950192 25.38314176 11.32950192 25.38314176 9 24 C7.83212496 21.69001187 7.20493813 19.5106465 6.60546875 16.99609375 C6.40566406 16.33738281 6.20585938 15.67867188 6 15 C5.34 14.67 4.68 14.34 4 14 C4.33 14.99 4.66 15.98 5 17 C4.01 17 3.02 17 2 17 C-0.46270288 13.30594568 -0.22985417 11.36722928 0 7 C0.33333333 5.66666667 0.66666667 4.33333333 1 3 C0.67 2.01 0.34 1.02 0 0 Z " fill="#D5EAF8" transform="translate(672,399)"/>
<path d="M0 0 C0.66 0.33 1.32 0.66 2 1 C2 4.96 2 8.92 2 13 C0.35 13.33 -1.3 13.66 -3 14 C-3.12375 15.11375 -3.2475 16.2275 -3.375 17.375 C-4 21 -4 21 -6 23 C-6.64767793 25.57061311 -6.64767793 25.57061311 -7 28 C-7.33 26.68 -7.66 25.36 -8 24 C-8.66 24.99 -9.32 25.98 -10 27 C-10.66 27 -11.32 27 -12 27 C-12 29.31 -12 31.62 -12 34 C-12.66 33.67 -13.32 33.34 -14 33 C-14 32.34 -14 31.68 -14 31 C-14.66 30.67 -15.32 30.34 -16 30 C-15.34773437 29.00742187 -14.69546875 28.01484375 -14.0234375 26.9921875 C-8.38157447 18.2692152 -3.73122021 9.70723957 0 0 Z " fill="#28B3F6" transform="translate(852,651)"/>
<path d="M0 0 C1.06476563 0.26554688 2.12953125 0.53109375 3.2265625 0.8046875 C12.45576142 3.0647251 21.55573645 4.86249758 31 6 C27.76120772 8.15919485 26.91167539 8.24117704 23.18359375 8.1953125 C21.79043945 8.18564453 21.79043945 8.18564453 20.36914062 8.17578125 C19.40169922 8.15902344 18.43425781 8.14226563 17.4375 8.125 C16.46619141 8.11597656 15.49488281 8.10695313 14.49414062 8.09765625 C11.99589411 8.07335086 9.49806999 8.03762589 7 8 C6.34 8 5.68 8 5 8 C3.33333333 8 1.66666667 8 0 8 C0.33 7.01 0.66 6.02 1 5 C0.34 5 -0.32 5 -1 5 C-0.67 3.35 -0.34 1.7 0 0 Z " fill="#1DB8F8" transform="translate(313,744)"/>
<path d="M0 0 C1.32 0 2.64 0 4 0 C8 0 12 0 16 0 C16 1.98 16 3.96 16 6 C11.36349735 6 7.12727862 5.89512061 2.5546875 5.125 C0.94013672 4.85429687 0.94013672 4.85429687 -0.70703125 4.578125 C-1.83496094 4.38734375 -2.96289062 4.1965625 -4.125 4 C-5.82849609 3.71382813 -5.82849609 3.71382813 -7.56640625 3.421875 C-10.37785091 2.94936329 -13.18903277 2.47534233 -16 2 C-16 1.67 -16 1.34 -16 1 C-10.58604362 0.22657766 -5.46721115 -0.09112019 0 0 Z " fill="#1C83F2" transform="translate(560,320)"/>
<path d="M0 0 C0.99 0.66 1.98 1.32 3 2 C2.67 2.804375 2.34 3.60875 2 4.4375 C0.93940959 6.69681125 0.93940959 6.69681125 1 8 C0.484375 8.5775 -0.03125 9.155 -0.5625 9.75 C-2.29859472 11.94656703 -2.29859472 11.94656703 -1.6875 14.75 C-1.3471875 15.86375 -1.3471875 15.86375 -1 17 C-3.31 16.67 -5.62 16.34 -8 16 C-8.33 17.32 -8.66 18.64 -9 20 C-9.66 20 -10.32 20 -11 20 C-11 20.99 -11 21.98 -11 23 C-12.32 22.67 -13.64 22.34 -15 22 C-13.50977142 17.49563677 -10.98491774 14.10211907 -8.0625 10.4375 C-7.17826573 9.31129187 -6.29414832 8.18499199 -5.41015625 7.05859375 C-4.61480469 6.04925781 -3.81945312 5.03992188 -3 4 C-1.99481954 2.67056778 -0.99212422 1.33920398 0 0 Z " fill="#F7C708" transform="translate(193,287)"/>
<path d="M0 0 C2.24538034 3.84344382 3.1026736 7.9638019 4.125 12.25 C4.30675781 12.99507812 4.48851562 13.74015625 4.67578125 14.5078125 C5.12147499 16.3375026 5.56131959 18.16861575 6 20 C3.36 20 0.72 20 -2 20 C-4.01869159 5.61682243 -4.01869159 5.61682243 -1 1 C-0.67 0.67 -0.34 0.34 0 0 Z " fill="#23B0F5" transform="translate(235,652)"/>
<path d="M0 0 C5.61984498 0.58011303 10.18384429 2.6630314 15.25 5 C16.0646875 5.36867188 16.879375 5.73734375 17.71875 6.1171875 C23.28013393 8.64006696 23.28013393 8.64006696 26 10 C25.67 11.32 25.34 12.64 25 14 C23.35 14 21.7 14 20 14 C20.33 13.01 20.66 12.02 21 11 C18.69 10.67 16.38 10.34 14 10 C14 8.68 14 7.36 14 6 C10.7 6 7.4 6 4 6 C4 5.34 4 4.68 4 4 C2.02 4.33 0.04 4.66 -2 5 C-2 4.01 -2 3.02 -2 2 C-1.34 2 -0.68 2 0 2 C0 1.34 0 0.68 0 0 Z " fill="#CBE6F9" transform="translate(578,330)"/>
<path d="M0 0 C5.94 0 11.88 0 18 0 C18 2.64 18 5.28 18 8 C12.99033162 7.09763737 8.10251069 5.74597041 3.1875 4.4375 C2.30384766 4.20353516 1.42019531 3.96957031 0.50976562 3.72851562 C-1.66051561 3.15368438 -3.83042042 2.57747279 -6 2 C-6 1.67 -6 1.34 -6 1 C-4.02 1 -2.04 1 0 1 C0 0.67 0 0.34 0 0 Z " fill="#247CEB" transform="translate(382,224)"/>
<path d="M0 0 C5.62765957 1.46808511 5.62765957 1.46808511 7.3125 3.875 C8 6 8 6 8.3125 8.125 C8.86443512 10.3002151 8.86443512 10.3002151 11.5625 11.25 C12.366875 11.4975 13.17125 11.745 14 12 C14.33 11.34 14.66 10.68 15 10 C15.25 15.625 15.25 15.625 13 19 C13.66 19.33 14.32 19.66 15 20 C15.33 20.66 15.66 21.32 16 22 C15.01 22.33 14.02 22.66 13 23 C11.01187252 19.92235899 9.03610142 16.83697248 7.0625 13.75 C6.49853516 12.87730469 5.93457031 12.00460937 5.35351562 11.10546875 C4.81533203 10.26113281 4.27714844 9.41679687 3.72265625 8.546875 C3.22515869 7.77182617 2.72766113 6.99677734 2.21508789 6.19824219 C1.05777627 4.10452432 0.44929899 2.33728594 0 0 Z " fill="#F3E00B" transform="translate(168,502)"/>
<path d="M0 0 C3.77485525 2.82780676 6.68279451 5.81971547 9.625 9.5 C10.38039062 10.4384375 11.13578125 11.376875 11.9140625 12.34375 C13.64013558 14.54174569 15.33685946 16.7542306 17 19 C16.34 19.66 15.68 20.32 15 21 C14.01 19.68 13.02 18.36 12 17 C10.02 17.99 10.02 17.99 8 19 C7.67 17.35 7.34 15.7 7 14 C6.34 14 5.68 14 5 14 C4.731875 13.2575 4.46375 12.515 4.1875 11.75 C3.14455161 8.9931683 3.14455161 8.9931683 1.375 7 C-0.33518303 4.51246105 -0.2463356 2.95602718 0 0 Z " fill="#19A2F1" transform="translate(187,533)"/>
<path d="M0 0 C0.33 0 0.66 0 1 0 C0.95875 1.19625 0.9175 2.3925 0.875 3.625 C0.8615078 7.45678587 1.73896738 10.37453122 3 14 C3.125 17.375 3.125 17.375 3 20 C2.01 19.67 1.02 19.34 0 19 C-0.45375 19.825 -0.9075 20.65 -1.375 21.5 C-2.179375 22.7375 -2.179375 22.7375 -3 24 C-3.66 24 -4.32 24 -5 24 C-5.12375 24.804375 -5.2475 25.60875 -5.375 26.4375 C-5.684375 27.7059375 -5.684375 27.7059375 -6 29 C-6.66 29.33 -7.32 29.66 -8 30 C-7.608125 28.7625 -7.21625 27.525 -6.8125 26.25 C-4.20322138 17.59421996 -2.15293983 8.77786152 0 0 Z " fill="#19ACF2" transform="translate(861,620)"/>
<path d="M0 0 C2.97 0 5.94 0 9 0 C8.67 1.65 8.34 3.3 8 5 C8.66 5.33 9.32 5.66 10 6 C10 7.32 10 8.64 10 10 C9.67 10.33 9.34 10.66 9 11 C8.95919217 12.99958364 8.95745644 15.00045254 9 17 C8.34 17.33 7.68 17.66 7 18 C5.82887054 15.37690901 4.66294036 12.75171858 3.5 10.125 C3.16613281 9.37863281 2.83226562 8.63226563 2.48828125 7.86328125 C2.17246094 7.14785156 1.85664063 6.43242187 1.53125 5.6953125 C1.23798828 5.03547363 0.94472656 4.37563477 0.64257812 3.69580078 C0 2 0 2 0 0 Z " fill="#F5E108" transform="translate(158,480)"/>
<path d="M0 0 C1.9375 1.375 1.9375 1.375 2.6875 4 C2.77 4.78375 2.8525 5.5675 2.9375 6.375 C4.5875 6.705 6.2375 7.035 7.9375 7.375 C7.9375 8.035 7.9375 8.695 7.9375 9.375 C8.9275 9.705 9.9175 10.035 10.9375 10.375 C10.9375 12.685 10.9375 14.995 10.9375 17.375 C6.96378236 15.22609241 4.19760691 12.79609244 1.1875 9.4375 C0.01960937 8.15552734 0.01960937 8.15552734 -1.171875 6.84765625 C-2.93142687 4.54642416 -3.66948985 3.1981229 -4.0625 0.375 C-2.0625 -0.625 -2.0625 -0.625 0 0 Z " fill="#F7E107" transform="translate(197.0625,536.625)"/>
<path d="M0 0 C-0.66 0 -1.32 0 -2 0 C-2 0.66 -2 1.32 -2 2 C-9.625 4 -9.625 4 -13 4 C-13 3.34 -13 2.68 -13 2 C-14.051875 2.185625 -15.10375 2.37125 -16.1875 2.5625 C-19.57119882 2.95079331 -21.76425888 2.88247485 -25 2 C-21.47921315 -0.01565047 -17.94911236 -0.82990674 -14 -1.6875 C-12.783125 -1.95949219 -11.56625 -2.23148438 -10.3125 -2.51171875 C-5.60504424 -3.20562438 -3.92908695 -2.6193913 0 0 Z " fill="#F8C306" transform="translate(309,228)"/>
<path d="M0 0 C0.66 0 1.32 0 2 0 C5 5.625 5 5.625 5 9 C12.26 9 19.52 9 27 9 C26.67 9.66 26.34 10.32 26 11 C17.42 11.33 8.84 11.66 0 12 C0.33 10.68 0.66 9.36 1 8 C0.67 7.67 0.34 7.34 0 7 C-0.04092937 4.66702567 -0.04241723 2.33294775 0 0 Z " fill="#D8ECF8" transform="translate(688,428)"/>
<path d="M0 0 C-0.33 1.65 -0.66 3.3 -1 5 C-7.47332421 7.24076607 -7.47332421 7.24076607 -10.1875 6 C-10.785625 5.67 -11.38375 5.34 -12 5 C-13.98330173 5.86649466 -13.98330173 5.86649466 -16 7 C-18.75 7.125 -18.75 7.125 -21 7 C-21 6.01 -21 5.02 -21 4 C-18.43923903 3.32595716 -15.87673417 2.660586 -13.3125 2 C-12.59126953 1.80921875 -11.87003906 1.6184375 -11.12695312 1.421875 C-7.33149039 0.45134572 -3.95384561 -0.24955239 0 0 Z " fill="#27B8F5" transform="translate(752,745)"/>
<path d="M0 0 C0.66 0.33 1.32 0.66 2 1 C1.67 1.66 1.34 2.32 1 3 C1.66 3.33 2.32 3.66 3 4 C2.175 4.763125 1.35 5.52625 0.5 6.3125 C-2.34055197 8.75434142 -2.34055197 8.75434142 -2 12 C-3.32 11.01 -4.64 10.02 -6 9 C-6.0825 9.61875 -6.165 10.2375 -6.25 10.875 C-7 13 -7 13 -8.75 14.0625 C-9.4925 14.371875 -10.235 14.68125 -11 15 C-12.299375 15.8353125 -12.299375 15.8353125 -13.625 16.6875 C-14.40875 17.120625 -15.1925 17.55375 -16 18 C-16.66 17.67 -17.32 17.34 -18 17 C-17.45730469 16.54109375 -16.91460937 16.0821875 -16.35546875 15.609375 C-15.64003906 14.99578125 -14.92460937 14.3821875 -14.1875 13.75 C-13.47980469 13.14671875 -12.77210938 12.5434375 -12.04296875 11.921875 C-9.94002444 10.06082782 -9.94002444 10.06082782 -8.36328125 7.765625 C-7.91339844 7.18296875 -7.46351563 6.6003125 -7 6 C-6.34 6 -5.68 6 -5 6 C-4.731875 5.38125 -4.46375 4.7625 -4.1875 4.125 C-3 2 -3 2 0 0 Z " fill="#FDF3AD" transform="translate(393,363)"/>
<path d="M0 0 C2.4375 0.1875 2.4375 0.1875 5 1 C6.3125 3.0625 6.3125 3.0625 7 5 C8.98 5 10.96 5 13 5 C12.773125 5.928125 12.54625 6.85625 12.3125 7.8125 C12.1578125 9.3903125 12.1578125 9.3903125 12 11 C13.45833358 12.62514468 13.45833358 12.62514468 15 14 C14.59375 16.0859375 14.59375 16.0859375 14 18 C12.24797712 16.10600285 10.49835022 14.20988262 8.75 12.3125 C8.25886719 11.78205078 7.76773437 11.25160156 7.26171875 10.70507812 C4.37269261 7.56566972 1.62459433 4.36822939 -1 1 C-0.67 0.67 -0.34 0.34 0 0 Z " fill="#2482EB" transform="translate(473,275)"/>
<path d="M0 0 C1.32 0.33 2.64 0.66 4 1 C2.35 7.6 0.7 14.2 -1 21 C-1.66 20.01 -2.32 19.02 -3 18 C-3.66 18.66 -4.32 19.32 -5 20 C-5.21755666 14.5610835 -5.10428384 10.12919186 -3 5 C-2.01 5 -1.02 5 0 5 C0 3.35 0 1.7 0 0 Z " fill="#24A8F6" transform="translate(237,592)"/>
<path d="M0 0 C7.75451806 0.58006237 15.34742277 1.62440584 23 3 C22.67 3.66 22.34 4.32 22 5 C19.36 4.67 16.72 4.34 14 4 C13.67 4.99 13.34 5.98 13 7 C12.34 7 11.68 7 11 7 C11 6.34 11 5.68 11 5 C10.34 5 9.68 5 9 5 C9 5.66 9 6.32 9 7 C7.68 7 6.36 7 5 7 C5 6.34 5 5.68 5 5 C4.34 4.67 3.68 4.34 3 4 C3 3.34 3 2.68 3 2 C2.01 1.34 1.02 0.68 0 0 Z " fill="#C6E4F9" transform="translate(533,320)"/>
<path d="M0 0 C0.66 0 1.32 0 2 0 C1.19500136 6.03748977 0.11517502 12.01270113 -1 18 C-1.66 16.68 -2.32 15.36 -3 14 C-3.99 14.495 -3.99 14.495 -5 15 C-5.33 10.71 -5.66 6.42 -6 2 C-4.68 2.33 -3.36 2.66 -2 3 C-1.34 2.01 -0.68 1.02 0 0 Z " fill="#298CE8" transform="translate(150,366)"/>
<path d="M0 0 C5.61 0 11.22 0 17 0 C15.30172081 3.39655838 11.35069769 3.90662542 7.9375 5.125 C7.17888672 5.40214844 6.42027344 5.67929688 5.63867188 5.96484375 C3.76143432 6.64962223 1.88100446 7.32563763 0 8 C0 5.36 0 2.72 0 0 Z " fill="#1E7BEF" transform="translate(256,232)"/>
<path d="M0 0 C0.99 0.33 1.98 0.66 3 1 C2.65120368 4.25543229 1.97866739 5.01873107 -0.5625 7.25 C-1.7690625 8.11625 -1.7690625 8.11625 -3 9 C-3.66 8.67 -4.32 8.34 -5 8 C-5.33 8.99 -5.66 9.98 -6 11 C-6.99 11 -7.98 11 -9 11 C-9 10.34 -9 9.68 -9 9 C-9.99 8.67 -10.98 8.34 -12 8 C-8.19752197 4.773655 -4.44929561 2.22464781 0 0 Z " fill="#FAC306" transform="translate(246,245)"/>
<path d="M0 0 C0 0.99 0 1.98 0 3 C0.61875 2.690625 1.2375 2.38125 1.875 2.0625 C5.32609659 0.33695171 6.37148129 -0.09169061 10.125 0.9375 C11.21167969 1.22947266 11.21167969 1.22947266 12.3203125 1.52734375 C12.87460937 1.68332031 13.42890625 1.83929688 14 2 C14 2.99 14 3.98 14 5 C13.34 5 12.68 5 12 5 C12 5.99 12 6.98 12 8 C6.63904723 6.41078475 1.29156027 4.81027062 -4 3 C-4 2.34 -4 1.68 -4 1 C-2 0 -2 0 0 0 Z " fill="#1C93F4" transform="translate(754,440)"/>
<path d="M0 0 C6.6 0 13.2 0 20 0 C19.01 1.65 18.02 3.3 17 5 C11.40167576 6.32841592 6.64165884 5.90669517 1 5 C1.66 4.34 2.32 3.68 3 3 C2.01 2.67 1.02 2.34 0 2 C0 1.34 0 0.68 0 0 Z " fill="#1C83F1" transform="translate(511,312)"/>
<path d="M0 0 C3.67882073 3.28466137 5.75150101 6.66360908 8 11 C8 11.66 8 12.32 8 13 C1.84765625 13.09765625 1.84765625 13.09765625 0 13 C-1 12 -1 12 -1.1328125 9.78515625 C-1.13023437 8.88667969 -1.12765625 7.98820312 -1.125 7.0625 C-1.12757813 6.16660156 -1.13015625 5.27070313 -1.1328125 4.34765625 C-1 2 -1 2 0 0 Z " fill="#F6C809" transform="translate(497,307)"/>
<path d="M0 0 C3.24555682 1.59970573 6.43999391 3.28301559 9.625 5 C10.58664062 5.515625 11.54828125 6.03125 12.5390625 6.5625 C15 8 15 8 17 10 C14.69 10.33 12.38 10.66 10 11 C10 10.34 10 9.68 10 9 C7.69 9.66 5.38 10.32 3 11 C3 8.36 3 5.72 3 3 C2.34 3 1.68 3 1 3 C0.67 2.01 0.34 1.02 0 0 Z " fill="#C6E4FA" transform="translate(605,341)"/>
<path d="M0 0 C3.37244652 3.99697365 6.71374722 8.27090179 9 13 C8.67 13.66 8.34 14.32 8 15 C5.36 15 2.72 15 0 15 C0 14.01 0 13.02 0 12 C0.66 12 1.32 12 2 12 C2 11.34 2 10.68 2 10 C1.34 9.67 0.68 9.34 0 9 C0 6.03 0 3.06 0 0 Z " fill="#1FB3F6" transform="translate(248,689)"/>
<path d="M0 0 C4.62 0 9.24 0 14 0 C14.25 7.625 14.25 7.625 12 11 C9.5 8.6875 9.5 8.6875 7 6 C7 5.01 7 4.02 7 3 C4.69 2.34 2.38 1.68 0 1 C0 0.67 0 0.34 0 0 Z " fill="#1E88F2" transform="translate(626,352)"/>
<path d="M0 0 C5.60120371 2.04471126 10.56677932 3.86232737 15 8 C3.5 8 3.5 8 -1 5 C-0.67 3.35 -0.34 1.7 0 0 Z " fill="#F3C30C" transform="translate(417,239)"/>
<path d="M0 0 C1.125 1.75 1.125 1.75 2 4 C1.1875 6.0625 1.1875 6.0625 0 8 C-0.33 8.99 -0.66 9.98 -1 11 C-0.01 11.33 0.98 11.66 2 12 C1.67 13.32 1.34 14.64 1 16 C1.66 16 2.32 16 3 16 C2.67 17.32 2.34 18.64 2 20 C1.34 20 0.68 20 0 20 C-2.28366919 14.25004723 -4.34457998 8.2351601 -3 2 C-2.01 1.34 -1.02 0.68 0 0 Z " fill="#F8E204" transform="translate(157,458)"/>
<path d="M0 0 C2.31 0.33 4.62 0.66 7 1 C7 5.33333333 7 9.66666667 7 14 C6.34 14 5.68 14 5 14 C4.1533966 12.61217515 3.32324661 11.21430603 2.5 9.8125 C2.0359375 9.03519531 1.571875 8.25789063 1.09375 7.45703125 C-0.10729647 4.75896614 -0.20741043 2.9193018 0 0 Z " fill="#2191F1" transform="translate(681,408)"/>
<path d="M0 0 C3.63 1.32 7.26 2.64 11 4 C7.29847322 4.92538169 6.36541838 5.08174162 3 4 C2.67 5.98 2.34 7.96 2 10 C0.35 10 -1.3 10 -3 10 C-3.33 10.99 -3.66 11.98 -4 13 C-5 11 -5 11 -4.2578125 8.65234375 C-3.88398438 7.75644531 -3.51015625 6.86054687 -3.125 5.9375 C-2.75632813 5.03902344 -2.38765625 4.14054688 -2.0078125 3.21484375 C-1 1 -1 1 0 0 Z " fill="#E4F3F8" transform="translate(245,582)"/>
<path d="M0 0 C3.96 0 7.92 0 12 0 C12 0.99 12 1.98 12 3 C10.37750059 3.83819158 8.75191503 4.6704116 7.125 5.5 C5.76761719 6.19609375 5.76761719 6.19609375 4.3828125 6.90625 C2 8 2 8 0 8 C0 5.36 0 2.72 0 0 Z " fill="#2A7FE4" transform="translate(240,240)"/>
<path d="M0 0 C1.79378179 2.69067269 2.97313958 5.08578257 4.1875 8.0625 C4.55230469 8.94035156 4.91710937 9.81820312 5.29296875 10.72265625 C6 13 6 13 5 15 C4.67 14.67 4.34 14.34 4 14 C3.01 15.485 3.01 15.485 2 17 C2 15.68 2 14.36 2 13 C1.34 13 0.68 13 0 13 C-0.33 14.32 -0.66 15.64 -1 17 C-1.02691685 14.54159395 -1.04679802 12.08348118 -1.0625 9.625 C-1.07087891 8.92632813 -1.07925781 8.22765625 -1.08789062 7.5078125 C-1.11328125 2.2265625 -1.11328125 2.2265625 0 0 Z " fill="#DFF1FA" transform="translate(850,531)"/>
<path d="M0 0 C1.75128818 0.28382946 3.50100003 0.57739529 5.25 0.875 C6.71179688 1.11863281 6.71179688 1.11863281 8.203125 1.3671875 C10.79911062 1.95454738 12.74520638 2.60368285 15 4 C15.33 4.66 15.66 5.32 16 6 C15.05125 5.835 14.1025 5.67 13.125 5.5 C10.19831099 4.9473365 10.19831099 4.9473365 8 5 C8 5.66 8 6.32 8 7 C5 6 5 6 4 5 C3.01 5.495 3.01 5.495 2 6 C-0.125 5.5625 -0.125 5.5625 -2 5 C-2 4.01 -2 3.02 -2 2 C-1.34 2 -0.68 2 0 2 C0 1.34 0 0.68 0 0 Z " fill="#F3C110" transform="translate(373,225)"/>
<path d="M0 0 C3.05001831 3.66002197 7 9.07851471 7 14 C4.33333333 14 1.66666667 14 -1 14 C-1.027193 12.41676312 -1.04648306 10.83338938 -1.0625 9.25 C-1.07410156 8.36828125 -1.08570313 7.4865625 -1.09765625 6.578125 C-1.00826198 4.2181162 -0.66912821 2.25501476 0 0 Z " fill="#22B3F6" transform="translate(241,674)"/>
<path d="M0 0 C0 0.33 0 0.66 0 1 C-27.64705882 3.05882353 -27.64705882 3.05882353 -40 1 C-40 0.67 -40 0.34 -40 0 C-13.24874212 -1.40027356 -13.24874212 -1.40027356 0 0 Z " fill="#F7FBF5" transform="translate(360,605)"/>
<path d="M0 0 C1.09248047 0.01160156 1.09248047 0.01160156 2.20703125 0.0234375 C2.92761719 0.01570313 3.64820313 0.00796875 4.390625 0 C8.18702194 0.01398305 11.1148394 0.15110151 14.33203125 2.2734375 C14.00203125 2.9334375 13.67203125 3.5934375 13.33203125 4.2734375 C10.95674974 4.13140413 8.58187874 3.98492138 6.20703125 3.8359375 C5.541875 3.79662109 4.87671875 3.75730469 4.19140625 3.71679688 C0.18184308 3.4612855 -3.71791071 3.00561337 -7.66796875 2.2734375 C-5.12644796 -0.26808329 -3.47035892 0.01282942 0 0 Z " fill="#2292F2" transform="translate(717.66796875,433.7265625)"/>
<path d="M0 0 C0.33 0.66 0.66 1.32 1 2 C0.67 2.99 0.34 3.98 0 5 C0.99 5 1.98 5 3 5 C2.67 5.99 2.34 6.98 2 8 C0.68 7.67 -0.64 7.34 -2 7 C-2.84454356 10.37817425 -3.10844919 12.67465243 -2 16 C-4.375 17.5625 -4.375 17.5625 -7 19 C-7.66 18.67 -8.32 18.34 -9 18 C-7.51800377 14.13392289 -5.79247064 10.45082594 -3.9375 6.75 C-3.41027344 5.69296875 -2.88304687 4.6359375 -2.33984375 3.546875 C-1 1 -1 1 0 0 Z " fill="#FEF6C0" transform="translate(349,416)"/>
<path d="M0 0 C1.98283479 1.11852219 3.96117623 2.24501325 5.9375 3.375 C7.59072266 4.31472656 7.59072266 4.31472656 9.27734375 5.2734375 C12 7 12 7 13 9 C12.236875 8.814375 11.47375 8.62875 10.6875 8.4375 C7.91032625 7.77180827 7.91032625 7.77180827 5 9 C5 8.34 5 7.68 5 7 C3.02 7.33 1.04 7.66 -1 8 C-0.67 5.36 -0.34 2.72 0 0 Z " fill="#1FB8F7" transform="translate(281,727)"/>
<path d="M0 0 C2.64 0.33 5.28 0.66 8 1 C8.33 5.29 8.66 9.58 9 14 C6.27441843 10.59302303 4.25342216 7.91609124 2.25 4.1875 C1.82203125 3.39730469 1.3940625 2.60710937 0.953125 1.79296875 C0.48132813 0.90544922 0.48132813 0.90544922 0 0 Z " fill="#2684E7" transform="translate(496,304)"/>
<path d="M0 0 C0 0.66 0 1.32 0 2 C-1.65 1.67 -3.3 1.34 -5 1 C-4.2236068 4.0745356 -4.2236068 4.0745356 -2 6 C-3.79008467 6.22151549 -5.58218162 6.42682213 -7.375 6.625 C-8.37273437 6.74101562 -9.37046875 6.85703125 -10.3984375 6.9765625 C-11.25695312 6.98429687 -12.11546875 6.99203125 -13 7 C-13.66 6.34 -14.32 5.68 -15 5 C-13.06891037 3.96709159 -11.129882 2.94901328 -9.1875 1.9375 C-8.10855469 1.36902344 -7.02960938 0.80054688 -5.91796875 0.21484375 C-3 -1 -3 -1 0 0 Z " fill="#FDF5BD" transform="translate(440,337)"/>
<path d="M0 0 C5.44876003 1.72066106 10.71169451 3.84705349 16 6 C12.71871122 6.98204842 9.73024479 7.13412615 6.3125 7.125 C5.33925781 7.12757813 4.36601562 7.13015625 3.36328125 7.1328125 C1 7 1 7 0 6 C-0.04080783 4.00041636 -0.04254356 1.99954746 0 0 Z " fill="#23B9F6" transform="translate(296,737)"/>
<path d="M0 0 C0.33 0.66 0.66 1.32 1 2 C0.67 2.66 0.34 3.32 0 4 C0.99 4 1.98 4 3 4 C3.33 3.01 3.66 2.02 4 1 C4.66 1.66 5.32 2.32 6 3 C4.37780659 5.46022691 2.75239445 7.91821719 1.125 10.375 C0.66480469 11.07367188 0.20460937 11.77234375 -0.26953125 12.4921875 C-0.71425781 13.1625 -1.15898437 13.8328125 -1.6171875 14.5234375 C-2.22989502 15.450354 -2.22989502 15.450354 -2.85498047 16.39599609 C-4 18 -4 18 -6 20 C-5.62192053 16.74851656 -5.26337639 14.41701261 -3.5 11.625 C-1.46784673 8.06873178 -1.40626562 5.06265618 -1 1 C-0.67 0.67 -0.34 0.34 0 0 Z " fill="#2586E7" transform="translate(178,297)"/>
<path d="M0 0 C1.31322788 0.97819024 2.62556152 1.9575811 3.9375 2.9375 C4.66839844 3.48277344 5.39929688 4.02804687 6.15234375 4.58984375 C8 6 8 6 9 7 C9.04063832 8.66617115 9.042721 10.33388095 9 12 C8.67 11.34 8.34 10.68 8 10 C6.34385343 9.61781233 4.67542976 9.28604898 3 9 C2.34 8.67 1.68 8.34 1 8 C0.67 8.66 0.34 9.32 0 10 C-0.33 8.02 -0.66 6.04 -1 4 C-0.34 4 0.32 4 1 4 C0.67 2.68 0.34 1.36 0 0 Z " fill="#29A4E7" transform="translate(208,555)"/>
<path d="M0 0 C1.65 0 3.3 0 5 0 C4.34 5.28 3.68 10.56 3 16 C2.67 16 2.34 16 2 16 C1.67 13.69 1.34 11.38 1 9 C0.01 8.67 -0.98 8.34 -2 8 C-1.125 2.25 -1.125 2.25 0 0 Z " fill="#FBE407" transform="translate(323,472)"/>
<path d="M0 0 C1.14926266 0.95421808 2.29430541 1.91352045 3.4375 2.875 C4.07558594 3.40867187 4.71367187 3.94234375 5.37109375 4.4921875 C7 6 7 6 8 8 C7.01 9.485 7.01 9.485 6 11 C3.375 11.1875 3.375 11.1875 1 11 C-0.17571451 7.32589215 -0.07366746 3.83070817 0 0 Z " fill="#F6C509" transform="translate(472,277)"/>
<path d="M0 0 C1.65 0 3.3 0 5 0 C4 4 4 4 3 8 C3.66 8.33 4.32 8.66 5 9 C4.67 9.33 4.34 9.66 4 10 C4.08984301 11.85772162 4.24611861 13.71247985 4.4375 15.5625 C4.53933594 16.57441406 4.64117188 17.58632813 4.74609375 18.62890625 C4.82988281 19.41136719 4.91367187 20.19382812 5 21 C4.34 20.67 3.68 20.34 3 20 C2.35416757 17.57072204 1.83000588 15.21538901 1.375 12.75 C1.2409375 12.08097656 1.106875 11.41195313 0.96875 10.72265625 C0.27198347 7.1037362 -0.15710263 3.68477084 0 0 Z " fill="#DEECF0" transform="translate(523,360)"/>
<path d="M0 0 C1 3 1 3 0 6 C-0.66 6 -1.32 6 -2 6 C-1.814375 7.093125 -1.62875 8.18625 -1.4375 9.3125 C-1 13 -1 13 -2 16 C-4.97 15.505 -4.97 15.505 -8 15 C-6.85657478 12.68628057 -5.71038936 10.37400323 -4.5625 8.0625 C-4.23701172 7.40314453 -3.91152344 6.74378906 -3.57617188 6.06445312 C-1.11328125 1.11328125 -1.11328125 1.11328125 0 0 Z " fill="#F6C708" transform="translate(175,312)"/>
<path d="M0 0 C2.31 0 4.62 0 7 0 C7 1.32 7 2.64 7 4 C2.8794254 5.99785435 -0.45194365 6.17835515 -5 6 C-5.33 5.01 -5.66 4.02 -6 3 C-5.34 3 -4.68 3 -4 3 C-4 2.34 -4 1.68 -4 1 C-3.01 1 -2.02 1 -1 1 C-1 1.66 -1 2.32 -1 3 C-0.01 2.67 0.98 2.34 2 2 C1.34 1.34 0.68 0.68 0 0 Z " fill="#F7FBF9" transform="translate(758,736)"/>
<path d="M0 0 C0.66 0 1.32 0 2 0 C2.33 5.28 2.66 10.56 3 16 C2.34 14.68 1.68 13.36 1 12 C0.01 12.33 -0.98 12.66 -2 13 C-1.85966889 11.02043559 -1.7125877 9.04134859 -1.5625 7.0625 C-1.48128906 5.96035156 -1.40007813 4.85820313 -1.31640625 3.72265625 C-1 1 -1 1 0 0 Z " fill="#D4EEFB" transform="translate(860,568)"/>
<path d="M0 0 C2.74792483 3.40219265 6 7.48464588 6 12 C4.02 12.33 2.04 12.66 0 13 C-1.44977894 10.65887549 -2.04314411 9.4203071 -1.7578125 6.640625 C-1.54898438 5.85171875 -1.34015625 5.0628125 -1.125 4.25 C-0.92132812 3.45078125 -0.71765625 2.6515625 -0.5078125 1.828125 C-0.34023438 1.22484375 -0.17265625 0.6215625 0 0 Z " fill="#D8EEFA" transform="translate(842,515)"/>
<path d="M0 0 C-0.33 0.66 -0.66 1.32 -1 2 C-2.98 2 -4.96 2 -7 2 C-7 2.99 -7 3.98 -7 5 C-8.77155654 4.88570603 -10.54226229 4.75816963 -12.3125 4.625 C-13.29863281 4.55539062 -14.28476562 4.48578125 -15.30078125 4.4140625 C-18 4 -18 4 -21 2 C-13.94546999 0.79556805 -7.16562789 -0.28100502 0 0 Z " fill="#FEF2B1" transform="translate(501,320)"/>
<path d="M0 0 C4.41309542 3.15221101 7.00793014 6.55463907 10 11 C8.68 11.33 7.36 11.66 6 12 C6 11.34 6 10.68 6 10 C5.38125 9.731875 4.7625 9.46375 4.125 9.1875 C2 8 2 8 0 5 C-0.125 2.3125 -0.125 2.3125 0 0 Z " fill="#31A2E3" transform="translate(187,533)"/>
<path d="M0 0 C0.33 0 0.66 0 1 0 C1 5.94 1 11.88 1 18 C-0.65 18.33 -2.3 18.66 -4 19 C-3.52464031 16.20763552 -3.0448933 13.41615009 -2.5625 10.625 C-2.42779297 9.8309375 -2.29308594 9.036875 -2.15429688 8.21875 C-1.11328125 2.2265625 -1.11328125 2.2265625 0 0 Z M-1 10 C-1.67958603 12.39719432 -1.67958603 12.39719432 -2 15 C-1.34 15.66 -0.68 16.32 0 17 C0 14.69 0 12.38 0 10 C-0.33 10 -0.66 10 -1 10 Z " fill="#FCE60B" transform="translate(323,499)"/>
<path d="M0 0 C2.8125 0.75 2.8125 0.75 5 2 C6.13671875 4.078125 6.13671875 4.078125 7 6 C-4.52164009 5.22095672 -4.52164009 5.22095672 -10 3 C-7.2864816 -0.83084951 -4.40966574 -0.3801436 0 0 Z " fill="#227CEA" transform="translate(359,218)"/>
<path d="M0 0 C2.31 0 4.62 0 7 0 C7 0.33 7 0.66 7 1 C11.62 1 16.24 1 21 1 C21 1.33 21 1.66 21 2 C19.865625 2.12375 18.73125 2.2475 17.5625 2.375 C15.7990625 2.684375 15.7990625 2.684375 14 3 C13.67 3.66 13.34 4.32 13 5 C9.37 5 5.74 5 2 5 C2.33 4.01 2.66 3.02 3 2 C2.01 1.34 1.02 0.68 0 0 Z " fill="#F9FDF9" transform="translate(331,744)"/>
<path d="M0 0 C2.31 1.98 4.62 3.96 7 6 C6.67 7.32 6.34 8.64 6 10 C3.69 9.67 1.38 9.34 -1 9 C-0.7215625 8.1028125 -0.7215625 8.1028125 -0.4375 7.1875 C0.22093687 4.83591238 0.22093687 4.83591238 -1 2 C-0.67 1.34 -0.34 0.68 0 0 Z " fill="#F4C30B" transform="translate(465,270)"/>
<path d="M0 0 C0.99 0.66 1.98 1.32 3 2 C2.67 4.31 2.34 6.62 2 9 C1.34 9 0.68 9 0 9 C0 9.99 0 10.98 0 12 C-1.32 11.67 -2.64 11.34 -4 11 C-3.52269162 9.5410574 -3.04308958 8.08286504 -2.5625 6.625 C-2.29566406 5.81289063 -2.02882813 5.00078125 -1.75390625 4.1640625 C-1 2 -1 2 0 0 Z " fill="#FEF9D2" transform="translate(339,436)"/>
<path d="M0 0 C1.58624235 0.42683239 3.1689098 0.86696158 4.75 1.3125 C6.07257813 1.67794922 6.07257813 1.67794922 7.421875 2.05078125 C10.05772505 3.02125331 11.85407326 4.21005644 14 6 C10.25804529 6.66523639 6.79563172 7 3 7 C2.67 5.35 2.34 3.7 2 2 C1.34 2 0.68 2 0 2 C0 1.34 0 0.68 0 0 Z " fill="#F1C111" transform="translate(402,233)"/>
<path d="M0 0 C-0.67170806 3.8063457 -1.72746564 7.35206816 -3 11 C-2.34 11 -1.68 11 -1 11 C-1 13.31 -1 15.62 -1 18 C-4.17175425 14.56464151 -4.45766505 11.84669909 -4.6875 7.25 C-4.75324219 6.07953125 -4.81898438 4.9090625 -4.88671875 3.703125 C-4.92410156 2.81109375 -4.96148437 1.9190625 -5 1 C-3 0 -3 0 0 0 Z " fill="#F7DD06" transform="translate(152,429)"/>
<path d="M0 0 C2.96404505 2.80804268 5.44499019 5.18315774 7 9 C4.36 9 1.72 9 -1 9 C-0.7215625 7.824375 -0.7215625 7.824375 -0.4375 6.625 C0.25962266 4.02910225 0.25962266 4.02910225 -1 2 C-0.67 1.34 -0.34 0.68 0 0 Z " fill="#2DB8F5" transform="translate(257,703)"/>
<path d="M0 0 C0.99 0.33 1.98 0.66 3 1 C3.66 0.67 4.32 0.34 5 0 C5.99 0.66 6.98 1.32 8 2 C8.1875 5.625 8.1875 5.625 8 9 C2.09815951 5.65030675 2.09815951 5.65030675 0 3 C0 2.01 0 1.02 0 0 Z " fill="#EFDE10" transform="translate(200,545)"/>
<path d="M0 0 C0.33 0 0.66 0 1 0 C1.53132389 2.58157368 2.05034379 5.16461756 2.5625 7.75 C2.78969727 8.84441406 2.78969727 8.84441406 3.02148438 9.9609375 C3.74557178 13.66557073 4.09817231 16.39322322 3 20 C0.33700197 17.33700197 0.36935771 15.38453279 -0.1875 11.6875 C-0.36667969 10.55699219 -0.54585937 9.42648437 -0.73046875 8.26171875 C-0.98301202 5.20557918 -0.77886422 2.94421723 0 0 Z " fill="#2E98E0" transform="translate(148,443)"/>
<path d="M0 0 C2.31 0 4.62 0 7 0 C7 2.31 7 4.62 7 7 C6.34 7 5.68 7 5 7 C5 6.34 5 5.68 5 5 C3.68 5.33 2.36 5.66 1 6 C0.67 4.02 0.34 2.04 0 0 Z " fill="#1A7CF3" transform="translate(465,264)"/>
<path d="M0 0 C0.33 0.99 0.66 1.98 1 3 C0.34 3.45375 -0.32 3.9075 -1 4.375 C-1.99 5.179375 -1.99 5.179375 -3 6 C-3 6.66 -3 7.32 -3 8 C-2.34 8.66 -1.68 9.32 -1 10 C-4.3 9.67 -7.6 9.34 -11 9 C-7.56638098 5.36440339 -4.2026393 2.63886654 0 0 Z " fill="#EAC214" transform="translate(231,254)"/>
<path d="M0 0 C0 0.66 0 1.32 0 2 C0.66 2.66 1.32 3.32 2 4 C-2.67201205 5.20568053 -7.21496292 5.09382426 -12 5 C-10.68 4.67 -9.36 4.34 -8 4 C-8.33 3.01 -8.66 2.02 -9 1 C-5.92677456 0.08941469 -3.19902639 -0.08886184 0 0 Z " fill="#F9FBF9" transform="translate(732,744)"/>
<path d="M0 0 C0.66 0 1.32 0 2 0 C3.32 2.64 4.64 5.28 6 8 C5.01 9.485 5.01 9.485 4 11 C2.68 11 1.36 11 0 11 C-0.33 9.35 -0.66 7.7 -1 6 C-0.34 6.66 0.32 7.32 1 8 C0.67 5.36 0.34 2.72 0 0 Z " fill="#259AF6" transform="translate(170,509)"/>
<path d="M0 0 C1.53674273 2.99004241 2.90306293 6.01823885 4.1875 9.125 C4.55230469 9.99382812 4.91710937 10.86265625 5.29296875 11.7578125 C6 14 6 14 5 16 C3.68 15.67 2.36 15.34 1 15 C-0.42705634 9.69276568 -1.4002792 5.46108889 0 0 Z " fill="#309BE2" transform="translate(155,472)"/>
<path d="M0 0 C1.65 1.65 3.3 3.3 5 5 C4.01 6.485 4.01 6.485 3 8 C-0.125 8.1875 -0.125 8.1875 -3 8 C-1.125 1.125 -1.125 1.125 0 0 Z " fill="#EFC311" transform="translate(483,288)"/>
<path d="M0 0 C0.66 0 1.32 0 2 0 C2.02698189 1.62490954 2.04638757 3.24994633 2.0625 4.875 C2.07410156 5.77992188 2.08570313 6.68484375 2.09765625 7.6171875 C2 10 2 10 1 12 C0.34 12 -0.32 12 -1 12 C-1.99 9.03 -2.98 6.06 -4 3 C-3.34 3 -2.68 3 -2 3 C-2 3.99 -2 4.98 -2 6 C-1.01 6 -0.02 6 1 6 C0.67 4.02 0.34 2.04 0 0 Z " fill="#E8F6FD" transform="translate(244,666)"/>
<path d="M0 0 C-0.33 0.33 -0.66 0.66 -1 1 C0.32 1.66 1.64 2.32 3 3 C0.03312999 4.64826111 -2.65626525 5.44271087 -6 6 C-6 4.02 -6 2.04 -6 0 C-3.50907189 -1.24546405 -2.58919267 -0.7767578 0 0 Z " fill="#2079F4" transform="translate(278,225)"/>
<path d="M0 0 C1.14926266 0.95421808 2.29430541 1.91352045 3.4375 2.875 C4.07558594 3.40867187 4.71367187 3.94234375 5.37109375 4.4921875 C7 6 7 6 8 8 C5.36 8 2.72 8 0 8 C0 5.36 0 2.72 0 0 Z " fill="#1BB5F8" transform="translate(264,712)"/>
<path d="M0 0 C1.134375 0.020625 2.26875 0.04125 3.4375 0.0625 C2.48328192 1.21176266 1.52397955 2.35680541 0.5625 3.5 C0.02882812 4.13808594 -0.50484375 4.77617187 -1.0546875 5.43359375 C-2.5625 7.0625 -2.5625 7.0625 -4.5625 8.0625 C-4.60491723 5.72955225 -4.60342937 3.39547433 -4.5625 1.0625 C-3.5625 0.0625 -3.5625 0.0625 0 0 Z " fill="#1F7DF3" transform="translate(196.5625,279.9375)"/>
<path d="M0 0 C5.28 0.66 10.56 1.32 16 2 C12.2632157 4.49118953 10.25548181 4.2065226 5.8125 4.125 C4.54019531 4.10695313 3.26789063 4.08890625 1.95703125 4.0703125 C0.49330078 4.03550781 0.49330078 4.03550781 -1 4 C-0.67 2.68 -0.34 1.36 0 0 Z " fill="#2FBCF8" transform="translate(328,748)"/>
<path d="M0 0 C3.7952131 1.49097658 5.61042731 3.75700849 8 7 C4.94736336 7.98120464 3.05263664 7.98120464 0 7 C0 4.66666667 0 2.33333333 0 0 Z " fill="#24B6F5" transform="translate(272,720)"/>
<path d="M0 0 C7.57142857 4.14285714 7.57142857 4.14285714 10 7 C3.375 7.25 3.375 7.25 0 5 C-0.1875 2.375 -0.1875 2.375 0 0 Z " fill="#F0C20F" transform="translate(448,257)"/>
<path d="M0 0 C0.66 0.33 1.32 0.66 2 1 C2.75 3.375 2.75 3.375 3 6 C2.01 7.485 2.01 7.485 1 9 C0.34 9 -0.32 9 -1 9 C-1.12375 9.804375 -1.2475 10.60875 -1.375 11.4375 C-1.58125 12.283125 -1.7875 13.12875 -2 14 C-2.99 14.495 -2.99 14.495 -4 15 C-3.69255859 14.00419922 -3.69255859 14.00419922 -3.37890625 12.98828125 C-3.10949219 12.10527344 -2.84007812 11.22226562 -2.5625 10.3125 C-2.29566406 9.44238281 -2.02882813 8.57226562 -1.75390625 7.67578125 C-1.03655471 5.12974079 -0.482459 2.5996577 0 0 Z " fill="#2DB3F8" transform="translate(857,635)"/>
<path d="M0 0 C2.31 0 4.62 0 7 0 C5.71480435 2.86697492 4.42870746 4.97607712 2 7 C1.34 7 0.68 7 0 7 C0 4.69 0 2.38 0 0 Z " fill="#2080EC" transform="translate(200,272)"/>
<path d="M0 0 C2.4375 0.1875 2.4375 0.1875 5 1 C6.3125 3.0625 6.3125 3.0625 7 5 C6.01 5.66 5.02 6.32 4 7 C2.35 5.02 0.7 3.04 -1 1 C-0.67 0.67 -0.34 0.34 0 0 Z " fill="#2A85E1" transform="translate(473,275)"/>
<path d="M0 0 C2.02045442 0.60183749 4.02111039 1.27306096 6 2 C6.33 2.66 6.66 3.32 7 4 C8.32 4 9.64 4 11 4 C11.33 5.98 11.66 7.96 12 10 C7.53318434 7.5635551 3.65941512 4.52231888 0 1 C0 0.67 0 0.34 0 0 Z " fill="#2E84E2" transform="translate(454,260)"/>
<path d="M0 0 C-1.375 1.5 -1.375 1.5 -3 3 C-3.66 3 -4.32 3 -5 3 C-5.33 3.99 -5.66 4.98 -6 6 C-7.98 6.33 -9.96 6.66 -12 7 C-10.84625061 3.53875184 -10.12298029 3.11687417 -7.125 1.25 C-6.42632812 0.80140625 -5.72765625 0.3528125 -5.0078125 -0.109375 C-3 -1 -3 -1 0 0 Z " fill="#FEF7C7" transform="translate(291,533)"/>
<path d="M0 0 C2.475 0.495 2.475 0.495 5 1 C5 2.98 5 4.96 5 7 C4.67 6.34 4.34 5.68 4 5 C3.01 5 2.02 5 1 5 C0.67 5.99 0.34 6.98 0 8 C0 5.36 0 2.72 0 0 Z " fill="#18A7F9" transform="translate(233,592)"/>
<path d="M0 0 C9.59453303 2.70615034 9.59453303 2.70615034 13 7 C12.01 7.33 11.02 7.66 10 8 C7.51953125 6.6015625 7.51953125 6.6015625 4.8125 4.625 C3.91144531 3.97789062 3.01039063 3.33078125 2.08203125 2.6640625 C1.39496094 2.11492188 0.70789063 1.56578125 0 1 C0 0.67 0 0.34 0 0 Z " fill="#E3D71B" transform="translate(224,568)"/>
<path d="M0 0 C0.33 1.32 0.66 2.64 1 4 C0.01 4.33 -0.98 4.66 -2 5 C-2 5.66 -2 6.32 -2 7 C-1.34 7.33 -0.68 7.66 0 8 C-0.99 8.33 -1.98 8.66 -3 9 C-3.66 8.67 -4.32 8.34 -5 8 C-5.33 8.99 -5.66 9.98 -6 11 C-6.33 10.34 -6.66 9.68 -7 9 C-5.19168608 5.38337216 -2.94721162 2.74395564 0 0 Z " fill="#FDF6C4" transform="translate(265,551)"/>
<path d="M0 0 C0.66 0 1.32 0 2 0 C1.67 4.95 1.34 9.9 1 15 C-0.64350079 11.71299843 -1.41321669 9.52069985 -2 6 C-1.34 6 -0.68 6 0 6 C0 4.02 0 2.04 0 0 Z " fill="#2D8CE2" transform="translate(146,386)"/>
<path d="M0 0 C0.99 0.66 1.98 1.32 3 2 C2.25 4.4375 2.25 4.4375 1 7 C-1.49476051 8.04618989 -3.26856911 8 -6 8 C-4.02 5.36 -2.04 2.72 0 0 Z " fill="#E1BF23" transform="translate(193,287)"/>
<path d="M0 0 C-0.33 1.32 -0.66 2.64 -1 4 C-0.01 4.33 0.98 4.66 2 5 C1.67 5.66 1.34 6.32 1 7 C-1.97 5.35 -4.94 3.7 -8 2 C-4 0 -4 0 0 0 Z " fill="#2E84DE" transform="translate(440,245)"/>
<path d="M0 0 C0.33 0 0.66 0 1 0 C1.08107583 1.93681161 1.13922475 3.8745934 1.1875 5.8125 C1.22230469 6.89144531 1.25710938 7.97039063 1.29296875 9.08203125 C1 12 1 12 -0.51171875 13.88671875 C-1.00285156 14.25410156 -1.49398437 14.62148438 -2 15 C-3.23922223 11.28233332 -2.57018942 9.56110463 -1.5625 5.8125 C-1.13130859 4.18248047 -1.13130859 4.18248047 -0.69140625 2.51953125 C-0.46324219 1.68808594 -0.23507812 0.85664062 0 0 Z " fill="#2CADF5" transform="translate(861,620)"/>
<path d="M0 0 C0.33 0.66 0.66 1.32 1 2 C0.67 2.99 0.34 3.98 0 5 C0.99 5 1.98 5 3 5 C2.67 5.99 2.34 6.98 2 8 C0.68 7.67 -0.64 7.34 -2 7 C-2.33 7.99 -2.66 8.98 -3 10 C-3.66 10 -4.32 10 -5 10 C-3.66511872 6.40608886 -2.03977277 3.24509304 0 0 Z " fill="#FEF1A3" transform="translate(349,416)"/>
<path d="M0 0 C1.98 0.99 3.96 1.98 6 3 C5.67 4.32 5.34 5.64 5 7 C3.35 7 1.7 7 0 7 C0 4.69 0 2.38 0 0 Z " fill="#CFE8F8" transform="translate(624,353)"/>
<path d="M0 0 C2.64 0 5.28 0 8 0 C8.66 1.65 9.32 3.3 10 5 C6.7 4.01 3.4 3.02 0 2 C0 1.34 0 0.68 0 0 Z " fill="#2889F1" transform="translate(578,328)"/>
<path d="M0 0 C0.66 0.33 1.32 0.66 2 1 C0.92456217 1.98783194 -0.16073217 2.96493943 -1.25 3.9375 C-2.15492188 4.75541016 -2.15492188 4.75541016 -3.078125 5.58984375 C-5.08467305 7.06212799 -6.57002449 7.57529189 -9 8 C-9.33 7.34 -9.66 6.68 -10 6 C-8.3811004 4.96951963 -6.75467511 3.95085322 -5.125 2.9375 C-4.22007812 2.36902344 -3.31515625 1.80054688 -2.3828125 1.21484375 C-1.20332031 0.61349609 -1.20332031 0.61349609 0 0 Z " fill="#E7C118" transform="translate(244,246)"/>
<path d="M0 0 C1.98 0 3.96 0 6 0 C6 0.99 6 1.98 6 3 C6.66 3 7.32 3 8 3 C7.67 4.32 7.34 5.64 7 7 C5.83040013 6.02433888 4.66438823 5.044375 3.5 4.0625 C2.8503125 3.51722656 2.200625 2.97195313 1.53125 2.41015625 C1.0259375 1.94480469 0.520625 1.47945313 0 1 C0 0.67 0 0.34 0 0 Z " fill="#2E94F2" transform="translate(650,373)"/>
<path d="M0 0 C1.231394 2.46278801 1.07159196 4.2795055 1 7 C0.34 7 -0.32 7 -1 7 C-1 7.99 -1 8.98 -1 10 C-2.32 9.67 -3.64 9.34 -5 9 C-3.7508258 5.54074837 -2.32472205 2.85306797 0 0 Z " fill="#E9C216" transform="translate(183,300)"/>
<path d="M0 0 C1.32 0.33 2.64 0.66 4 1 C4 2.98 4 4.96 4 7 C2.68 7.33 1.36 7.66 0 8 C0 5.36 0 2.72 0 0 Z " fill="#207CEF" transform="translate(240,240)"/>
<path d="M0 0 C0 0.33 0 0.66 0 1 C-1.95565258 1.38873828 -3.91466504 1.76060833 -5.875 2.125 C-6.96554687 2.33382812 -8.05609375 2.54265625 -9.1796875 2.7578125 C-10.57574219 2.87769531 -10.57574219 2.87769531 -12 3 C-12.66 2.34 -13.32 1.68 -14 1 C-9.22426677 -1.61895048 -5.15565119 -0.83119431 0 0 Z " fill="#2E82DF" transform="translate(302,225)"/>
<path d="M0 0 C2.64 0 5.28 0 8 0 C8 1.65 8 3.3 8 5 C6.68 5.33 5.36 5.66 4 6 C3.67 5.01 3.34 4.02 3 3 C1.50014391 1.33289654 1.50014391 1.33289654 0 0 Z " fill="#F9FCFA" transform="translate(288,728)"/>
<path d="M0 0 C4.08718695 -0.24042276 7.17679443 0.57741188 11 2 C11 2.66 11 3.32 11 4 C6.78121808 4.19622241 3.82989106 3.80230168 0 2 C0 1.34 0 0.68 0 0 Z " fill="#F7FAF8" transform="translate(771,728)"/>
<path d="M0 0 C0 0.66 0 1.32 0 2 C-0.66 2 -1.32 2 -2 2 C-2 2.66 -2 3.32 -2 4 C-1.34 4 -0.68 4 0 4 C-0.33 4.99 -0.66 5.98 -1 7 C-2.98 4.69 -4.96 2.38 -7 0 C-4.3333581 -1.33332095 -2.83319697 -0.67102033 0 0 Z " fill="#2496F0" transform="translate(815,473)"/>
<path d="M0 0 C2.475 0.495 2.475 0.495 5 1 C3.68 3.64 2.36 6.28 1 9 C0.67 9 0.34 9 0 9 C0 6.03 0 3.06 0 0 Z " fill="#FDE008" transform="translate(336,432)"/>
<path d="M0 0 C3.08089673 2.77280706 4.68775452 5.06326356 6 9 C4.35 9.33 2.7 9.66 1 10 C-0.08209949 6.75370153 0.21859125 6.12563502 1 3 C0.67 2.01 0.34 1.02 0 0 Z " fill="#BCE0FA" transform="translate(672,399)"/>
<path d="M0 0 C1.65 0 3.3 0 5 0 C5.66 1.98 6.32 3.96 7 6 C6.34 6.66 5.68 7.32 5 8 C0 2.25 0 2.25 0 0 Z " fill="#2A93F2" transform="translate(663,386)"/>
<path d="M0 0 C0.66 0.33 1.32 0.66 2 1 C2 2.98 2 4.96 2 7 C1.34 7 0.68 7 0 7 C0 7.99 0 8.98 0 10 C-0.66 10 -1.32 10 -2 10 C-2.25 3.375 -2.25 3.375 0 0 Z " fill="#198BF2" transform="translate(146,379)"/>
<path d="M0 0 C0.33 0.99 0.66 1.98 1 3 C-0.85625 3.680625 -0.85625 3.680625 -2.75 4.375 C-5.59245495 5.4384007 -8.32663046 6.55192483 -11 8 C-8.21659292 4.18570141 -5.12174212 0 0 0 Z " fill="#FDF2AC" transform="translate(406,355)"/>
<path d="M0 0 C2 1 2 1 3 3 C5.01669827 4.13350534 5.01669827 4.13350534 7 5 C4.44855176 5.93045933 3.25993522 6.08564091 0.640625 5.22265625 C-0.14828125 4.83980469 -0.9371875 4.45695313 -1.75 4.0625 C-2.54921875 3.68222656 -3.3484375 3.30195313 -4.171875 2.91015625 C-4.77515625 2.60980469 -5.3784375 2.30945313 -6 2 C-2.25 0.875 -2.25 0.875 0 2 C0 1.34 0 0.68 0 0 Z " fill="#2A81E3" transform="translate(422,237)"/>
<path d="M0 0 C0 1.32 0 2.64 0 4 C-0.66 4 -1.32 4 -2 4 C-2.33 4.66 -2.66 5.32 -3 6 C-3 5.01 -3 4.02 -3 3 C-4.65 3 -6.3 3 -8 3 C-8 2.34 -8 1.68 -8 1 C-5.10765685 0.17361624 -3.11257569 0 0 0 Z " fill="#18B7F9" transform="translate(791,730)"/>
<path d="M0 0 C1.32 1.65 2.64 3.3 4 5 C2.125 6.0625 2.125 6.0625 0 7 C-0.66 6.67 -1.32 6.34 -2 6 C-2 4.35 -2 2.7 -2 1 C-1.34 0.67 -0.68 0.34 0 0 Z " fill="#D3ECFA" transform="translate(835,504)"/>
<path d="M0 0 C1.17539996 0.92652701 2.34010577 1.86663387 3.5 2.8125 C4.1496875 3.33457031 4.799375 3.85664063 5.46875 4.39453125 C7 6 7 6 7 9 C6.34 8.34 5.68 7.68 5 7 C4.01 7.495 4.01 7.495 3 8 C2.34 7.67 1.68 7.34 1 7 C0.59270772 4.67843403 0.25561323 2.3431213 0 0 Z " fill="#BFE3FB" transform="translate(641,365)"/>
<path d="M0 0 C2.97 0.33 5.94 0.66 9 1 C9.33 2.32 9.66 3.64 10 5 C6.33118845 4.29445932 3.29549466 2.72264494 0 1 C0 0.67 0 0.34 0 0 Z " fill="#298CF1" transform="translate(602,339)"/>
<path d="M0 0 C1 3 1 3 0 6 C-0.66 6 -1.32 6 -2 6 C-2 7.32 -2 8.64 -2 10 C-2.66 10 -3.32 10 -4 10 C-4 10.66 -4 11.32 -4 12 C-4.66 12 -5.32 12 -6 12 C-4.43358249 7.69235185 -2.31663844 3.93828536 0 0 Z " fill="#E9C315" transform="translate(175,312)"/>
<path d="M0 0 C0.99 0.33 1.98 0.66 3 1 C2.34 2.32 1.68 3.64 1 5 C-0.32 5 -1.64 5 -3 5 C-2.625 3.0625 -2.625 3.0625 -2 1 C-1.34 0.67 -0.68 0.34 0 0 Z " fill="#F8F9FB" transform="translate(811,705)"/>
<path d="M0 0 C2.875 0.625 2.875 0.625 6 2 C7.375 5.125 7.375 5.125 8 8 C3.79373966 6.49776416 2.26099979 3.71449966 0 0 Z " fill="#F0DE0B" transform="translate(184,528)"/>
<path d="M0 0 C0.66 0.33 1.32 0.66 2 1 C2.625 3.5625 2.625 3.5625 3 6 C3.66 6 4.32 6 5 6 C5 7.65 5 9.3 5 11 C2.61327331 8.03716687 0.2646629 5.05729491 -2 2 C-1.34 2 -0.68 2 0 2 C0 1.34 0 0.68 0 0 Z " fill="#2F9DF1" transform="translate(834,498)"/>
<path d="M0 0 C0.33 0.66 0.66 1.32 1 2 C1.99 1.67 2.98 1.34 4 1 C4.33 2.32 4.66 3.64 5 5 C3.68 5.99 2.36 6.98 1 8 C0.34 7.67 -0.32 7.34 -1 7 C-0.67 4.69 -0.34 2.38 0 0 Z " fill="#FDF6C6" transform="translate(330,461)"/>
<path d="M0 0 C0.66 0.33 1.32 0.66 2 1 C2 3.31 2 5.62 2 8 C2.66 8.33 3.32 8.66 4 9 C3.01 9.99 2.02 10.98 1 12 C-0.80619523 7.53763531 -1.11658501 4.68965706 0 0 Z " fill="#1B8AF0" transform="translate(669,384)"/>
<path d="M0 0 C-3.57380342 1.19126781 -5.50883302 0.7349445 -9.1875 0.0625 C-10.27417969 -0.13214844 -11.36085938 -0.32679688 -12.48046875 -0.52734375 C-13.31191406 -0.68332031 -14.14335938 -0.83929688 -15 -1 C-15 -1.33 -15 -1.66 -15 -2 C-5.20408163 -3.46938776 -5.20408163 -3.46938776 0 0 Z " fill="#2E8DEF" transform="translate(559,323)"/>
<path d="M0 0 C1 2 1 2 0.0625 5.125 C-0.288125 6.07375 -0.63875 7.0225 -1 8 C-2.32 7.67 -3.64 7.34 -5 7 C-3.70700306 4.11562221 -2.34058637 2.12780579 0 0 Z " fill="#EAC116" transform="translate(217,264)"/>
<path d="M0 0 C0.66 0.33 1.32 0.66 2 1 C0.00449854 2.99550146 -1.47924835 3.81376393 -4 5 C-4.7425 5.37125 -5.485 5.7425 -6.25 6.125 C-6.8275 6.41375 -7.405 6.7025 -8 7 C-8.33 6.01 -8.66 5.02 -9 4 C-7.54618103 3.30300448 -6.08677047 2.61766134 -4.625 1.9375 C-3.40683594 1.36322266 -3.40683594 1.36322266 -2.1640625 0.77734375 C-1.44992187 0.52082031 -0.73578125 0.26429688 0 0 Z " fill="#DEBB26" transform="translate(262,237)"/>
<path d="M0 0 C0.66 0.66 1.32 1.32 2 2 C1.625 4.625 1.625 4.625 1 7 C0.01 6.67 -0.98 6.34 -2 6 C-1.67 5.34 -1.34 4.68 -1 4 C-1.99 4.33 -2.98 4.66 -4 5 C-3 2 -3 2 0 0 Z " fill="#FEFBEA" transform="translate(254,569)"/>
<path d="M0 0 C2.64752004 2.57784846 4.94432065 4.91648098 7 8 C6.34 8.66 5.68 9.32 5 10 C4.566875 9.38125 4.13375 8.7625 3.6875 8.125 C2.00259517 5.7802755 2.00259517 5.7802755 -1 4 C-0.34 4 0.32 4 1 4 C0.67 2.68 0.34 1.36 0 0 Z " fill="#319FE8" transform="translate(197,544)"/>
<path d="M0 0 C0.99 0 1.98 0 3 0 C3 2.64 3 5.28 3 8 C2.01 8.495 2.01 8.495 1 9 C-0.4783226 6.04335481 -0.06032783 3.25770263 0 0 Z " fill="#EBD913" transform="translate(152,457)"/>
<path d="M0 0 C0.66 0 1.32 0 2 0 C1.34 2.97 0.68 5.94 0 9 C-1.32 8.67 -2.64 8.34 -4 8 C-2.99059621 4.97178863 -1.78305524 2.63892176 0 0 Z " fill="#FBE10A" transform="translate(332,449)"/>
<path d="M0 0 C2.475 0.99 2.475 0.99 5 2 C5 2.99 5 3.98 5 5 C3.68 5 2.36 5 1 5 C-0.67225729 5.30404678 -2.34080104 5.63128912 -4 6 C-4 4 -4 4 -2 1.875 C-1.34 1.25625 -0.68 0.6375 0 0 Z " fill="#FEF5B4" transform="translate(370,386)"/>
<path d="M0 0 C-0.350625 0.61875 -0.70125 1.2375 -1.0625 1.875 C-1.5265625 2.926875 -1.5265625 2.926875 -2 4 C-1.67 4.66 -1.34 5.32 -1 6 C-3.64 6 -6.28 6 -9 6 C-3.2 0 -3.2 0 0 0 Z " fill="#FEF1A9" transform="translate(422,344)"/>
<path d="M0 0 C3.33333333 1.66666667 6.66666667 3.33333333 10 5 C8.02 5.99 8.02 5.99 6 7 C5.01 6.34 4.02 5.68 3 5 C3 4.34 3 3.68 3 3 C2.34 3 1.68 3 1 3 C0.67 2.01 0.34 1.02 0 0 Z " fill="#BFE3FB" transform="translate(605,341)"/>
<path d="M0 0 C0.99 0.33 1.98 0.66 3 1 C1.68 3.64 0.36 6.28 -1 9 C-1.33 8.34 -1.66 7.68 -2 7 C-2.66 6.67 -3.32 6.34 -4 6 C-3.34 6 -2.68 6 -2 6 C-1.855625 5.195625 -1.71125 4.39125 -1.5625 3.5625 C-1 1 -1 1 0 0 Z " fill="#2B87E5" transform="translate(169,317)"/>
<path d="M0 0 C2.94982021 1.14186589 4.88437775 2.67281553 7 5 C5.02 5.99 5.02 5.99 3 7 C2.67 6.01 2.34 5.02 2 4 C0.00334686 2.31461399 0.00334686 2.31461399 -2 1 C-1.34 0.67 -0.68 0.34 0 0 Z " fill="#C8E7FA" transform="translate(797,466)"/>
<path d="M0 0 C2.72426311 2.35277269 3.8141763 4.62496331 5 8 C4.01 8.99 3.02 9.98 2 11 C0.875 6.25 0.875 6.25 2 4 C1.34 4 0.68 4 0 4 C0 2.68 0 1.36 0 0 Z " fill="#C6E5FB" transform="translate(678,408)"/>
<path d="M0 0 C0 0.66 0 1.32 0 2 C-1.65 1.67 -3.3 1.34 -5 1 C-5 1.99 -5 2.98 -5 4 C-6.65 3.67 -8.3 3.34 -10 3 C-4.37755102 -1.45918367 -4.37755102 -1.45918367 0 0 Z " fill="#FDF2AE" transform="translate(440,337)"/>
<path d="M0 0 C0.99 0.33 1.98 0.66 3 1 C2.01 3.97 1.02 6.94 0 10 C-0.66 9.01 -1.32 8.02 -2 7 C-1.125 3.3125 -1.125 3.3125 0 0 Z " fill="#328CDB" transform="translate(164,325)"/>
<path d="M0 0 C0 1.32 0 2.64 0 4 C-2.64 4 -5.28 4 -8 4 C-8 3.34 -8 2.68 -8 2 C-4.91190305 0.23537317 -3.76687864 0 0 0 Z " fill="#2078F6" transform="translate(424,232)"/>
<path d="M0 0 C1.98 0 3.96 0 6 0 C6 0.99 6 1.98 6 3 C3 4 3 4 0 3 C0 2.01 0 1.02 0 0 Z " fill="#1AB7F6" transform="translate(741,748)"/>
<path d="M0 0 C0.66 0 1.32 0 2 0 C0.90931332 3.77545388 0.0916909 6.47043472 -3 9 C-3.66 8.67 -4.32 8.34 -5 8 C-4.21718695 6.66144944 -3.42348123 5.32926356 -2.625 4 C-2.18414062 3.2575 -1.74328125 2.515 -1.2890625 1.75 C-0.86367187 1.1725 -0.43828125 0.595 0 0 Z " fill="#FEF5C6" transform="translate(256,562)"/>
<path d="M0 0 C0.99 0.66 1.98 1.32 3 2 C2.67 3.98 2.34 5.96 2 8 C1.34 7.01 0.68 6.02 0 5 C-0.99 5.99 -1.98 6.98 -3 8 C-1.125 2.25 -1.125 2.25 0 0 Z " fill="#FDF3B1" transform="translate(339,436)"/>
<path d="M0 0 C1.48484412 0.39595843 2.9628831 0.81750706 4.4375 1.25 C5.26121094 1.48203125 6.08492187 1.7140625 6.93359375 1.953125 C9 3 9 3 9.78515625 5.109375 C9.85605469 5.73328125 9.92695312 6.3571875 10 7 C6.42032008 5.34784004 3.22017048 3.26875648 0 1 C0 0.67 0 0.34 0 0 Z " fill="#3598F4" transform="translate(624,352)"/>
<path d="M0 0 C1.5 1.25 1.5 1.25 3 3 C3 4.32 3 5.64 3 7 C1.35 6.67 -0.3 6.34 -2 6 C-1.34 4.02 -0.68 2.04 0 0 Z " fill="#F0C30E" transform="translate(458,264)"/>
<path d="M0 0 C3.96 1.98 3.96 1.98 8 4 C8 4.33 8 4.66 8 5 C5.66666667 5 3.33333333 5 1 5 C0.01 5.495 0.01 5.495 -1 6 C-0.67 4.02 -0.34 2.04 0 0 Z " fill="#EABF17" transform="translate(424,242)"/>
<path d="M0 0 C1.32 0 2.64 0 4 0 C3.67 1.32 3.34 2.64 3 4 C3.66 4.33 4.32 4.66 5 5 C3.35 5 1.7 5 0 5 C-0.5625 3.0625 -0.5625 3.0625 -1 1 C-0.67 0.67 -0.34 0.34 0 0 Z " fill="#F9FCF9" transform="translate(308,737)"/>
<path d="M0 0 C1.65 1.65 3.3 3.3 5 5 C4.67 5.99 4.34 6.98 4 8 C2.02 6.68 0.04 5.36 -2 4 C-1.34 3.67 -0.68 3.34 0 3 C0 2.01 0 1.02 0 0 Z " fill="#E2F2F8" transform="translate(287,726)"/>
<path d="M0 0 C2.52588702 2.36292656 3.88820837 3.66462511 5 7 C4.01 7.495 4.01 7.495 3 8 C3 7.01 3 6.02 3 5 C2.34 5 1.68 5 1 5 C0.67 5.66 0.34 6.32 0 7 C-0.93423645 3.98968256 -1.04449911 3.13349732 0 0 Z " fill="#2DBBF5" transform="translate(252,696)"/>
<path d="M0 0 C2.15377564 2.62198774 3.40072174 4.64404172 4 8 C1.525 7.01 1.525 7.01 -1 6 C-0.67 4.02 -0.34 2.04 0 0 Z " fill="#30B8F7" transform="translate(241,674)"/>
<path d="M0 0 C1.5625 1 1.5625 1 3 3 C2.96726452 5.76614782 2.49404328 8.26030547 2 11 C-0.67927341 6.98108988 -0.15601248 4.75838077 0 0 Z " fill="#28AFF5" transform="translate(234,602)"/>
<path d="M0 0 C0.66 0.33 1.32 0.66 2 1 C2 3.64 2 6.28 2 9 C0.68 8.67 -0.64 8.34 -2 8 C-1.34 5.36 -0.68 2.72 0 0 Z " fill="#FEF5BC" transform="translate(333,452)"/>
<path d="M0 0 C2.475 0.495 2.475 0.495 5 1 C5 2.32 5 3.64 5 5 C3.35 5.33 1.7 5.66 0 6 C0 4.02 0 2.04 0 0 Z " fill="#D3E7F8" transform="translate(608,346)"/>
<path d="M0 0 C2.31 0.33 4.62 0.66 7 1 C7.66 2.65 8.32 4.3 9 6 C6.03 4.35 3.06 2.7 0 1 C0 0.67 0 0.34 0 0 Z " fill="#2D8BEF" transform="translate(612,344)"/>
<path d="M0 0 C0 0.99 0 1.98 0 3 C-0.99 3.33 -1.98 3.66 -3 4 C-5.6875 2.0625 -5.6875 2.0625 -8 0 C-5.13822943 -1.43088528 -3.06624227 -0.59991697 0 0 Z " fill="#2489F5" transform="translate(563,321)"/>
<path d="M0 0 C0.33 0.66 0.66 1.32 1 2 C1.99 2.33 2.98 2.66 4 3 C4.33 3.99 4.66 4.98 5 6 C4.01 6.33 3.02 6.66 2 7 C1.34 6.01 0.68 5.02 0 4 C-0.99 4.495 -0.99 4.495 -2 5 C-1.34 3.35 -0.68 1.7 0 0 Z " fill="#F8C509" transform="translate(219,263)"/>
<path d="M0 0 C1.32 0.33 2.64 0.66 4 1 C4 1.99 4 2.98 4 4 C0.7 3.34 -2.6 2.68 -6 2 C-6 1.67 -6 1.34 -6 1 C-4.02 1 -2.04 1 0 1 C0 0.67 0 0.34 0 0 Z " fill="#2F7FE3" transform="translate(382,224)"/>
<path d="M0 0 C3 3.625 3 3.625 3 7 C1.35 6.67 -0.3 6.34 -2 6 C-1.49396008 3.83125748 -1.00016187 2.00032373 0 0 Z " fill="#FDFCEA" transform="translate(260,559)"/>
<path d="M0 0 C0.33 0 0.66 0 1 0 C1.66 3.63 2.32 7.26 3 11 C2.34 10.67 1.68 10.34 1 10 C1 9.01 1 8.02 1 7 C0.34 7 -0.32 7 -1 7 C-0.67 4.69 -0.34 2.38 0 0 Z " fill="#D8EEFA" transform="translate(858,555)"/>
<path d="M0 0 C0.99 0.33 1.98 0.66 3 1 C3 1.66 3 2.32 3 3 C-1.455 4.485 -1.455 4.485 -6 6 C-4 4 -2 2 0 0 Z " fill="#FDF6C7" transform="translate(277,540)"/>
<path d="M0 0 C0.66 0 1.32 0 2 0 C2 0.66 2 1.32 2 2 C2.66 2 3.32 2 4 2 C4 2.99 4 3.98 4 5 C2.35 5.66 0.7 6.32 -1 7 C-0.67 4.69 -0.34 2.38 0 0 Z " fill="#F9E407" transform="translate(321,491)"/>
<path d="M0 0 C1.98 0.495 1.98 0.495 4 1 C3.67 2.32 3.34 3.64 3 5 C1.68 5 0.36 5 -1 5 C-0.67 3.35 -0.34 1.7 0 0 Z " fill="#DEF0F9" transform="translate(793,466)"/>
<path d="M0 0 C0.66 0.66 1.32 1.32 2 2 C1.34 2 0.68 2 0 2 C0 2.99 0 3.98 0 5 C-2.64 4.34 -5.28 3.68 -8 3 C-8 2.67 -8 2.34 -8 2 C-6.71254964 1.61077082 -5.41980403 1.23901964 -4.125 0.875 C-3.04605469 0.56175781 -3.04605469 0.56175781 -1.9453125 0.2421875 C-1.30335938 0.16226562 -0.66140625 0.08234375 0 0 Z " fill="#2E98F0" transform="translate(766,443)"/>
<path d="M0 0 C0.99 0 1.98 0 3 0 C3.33 0.99 3.66 1.98 4 3 C3.01 3.33 2.02 3.66 1 4 C1 4.66 1 5.32 1 6 C0.01 5.67 -0.98 5.34 -2 5 C-1.125 1.125 -1.125 1.125 0 0 Z " fill="#1984F6" transform="translate(154,336)"/>
<path d="M0 0 C1.45922693 0.11409593 2.91740598 0.24165544 4.375 0.375 C5.59316406 0.47941406 5.59316406 0.47941406 6.8359375 0.5859375 C9 1 9 1 11 3 C8.3125 3.75 8.3125 3.75 5 4 C2.125 2.0625 2.125 2.0625 0 0 Z " fill="#BEE0F9" transform="translate(557,324)"/>
<path d="M0 0 C0.99 0.33 1.98 0.66 3 1 C1.35 2.98 -0.3 4.96 -2 7 C-2.66 6.01 -3.32 5.02 -4 4 C-3 2 -3 2 0 1 C0 0.67 0 0.34 0 0 Z " fill="#2F83E0" transform="translate(213,264)"/>
<path d="M0 0 C1.32 0 2.64 0 4 0 C4 0.99 4 1.98 4 3 C3.01 3.495 3.01 3.495 2 4 C1.34786708 6.02463255 1.34786708 6.02463255 1 8 C0.67 8 0.34 8 0 8 C0 5.36 0 2.72 0 0 Z " fill="#1D7DEF" transform="translate(208,264)"/>
<path d="M0 0 C-4.30769231 3.07692308 -4.30769231 3.07692308 -7.8125 2.6875 C-8.534375 2.460625 -9.25625 2.23375 -10 2 C-3.24137931 -1.62068966 -3.24137931 -1.62068966 0 0 Z " fill="#E4BE20" transform="translate(294,228)"/>
<path d="M0 0 C-2.39509338 2.89932357 -4.31245243 3.50168276 -8 4 C-5.97675095 -0.48005146 -4.79569304 -1.43870791 0 0 Z " fill="#F5BF10" transform="translate(300,227)"/>
<path d="M0 0 C1.99097846 2.98646769 2.94124926 5.59687262 4 9 C2.68 8.67 1.36 8.34 0 8 C0 5.36 0 2.72 0 0 Z " fill="#C7E9FC" transform="translate(850,531)"/>
<path d="M0 0 C0.66 0 1.32 0 2 0 C2.99 1.98 3.98 3.96 5 6 C4.01 6.33 3.02 6.66 2 7 C0 4 0 4 0 0 Z " fill="#349FDD" transform="translate(170,509)"/>
<path d="M0 0 C0.66 0 1.32 0 2 0 C2 0.66 2 1.32 2 2 C2.66 2 3.32 2 4 2 C4.33 3.98 4.66 5.96 5 8 C4.01 7.67 3.02 7.34 2 7 C0.8125 3.4375 0.8125 3.4375 0 0 Z " fill="#208FEE" transform="translate(691,424)"/>
<path d="M0 0 C0.66 0.99 1.32 1.98 2 3 C0 6 0 6 -2.125 6.6875 C-2.74375 6.790625 -3.3625 6.89375 -4 7 C-3.67 5.68 -3.34 4.36 -3 3 C-2.34 3 -1.68 3 -1 3 C-0.67 2.01 -0.34 1.02 0 0 Z " fill="#FEF2AD" transform="translate(356,405)"/>
<path d="M0 0 C2 3.75 2 3.75 2 6 C0.02 6 -1.96 6 -4 6 C-2.68 4.02 -1.36 2.04 0 0 Z " fill="#FDF7C7" transform="translate(381,378)"/>
<path d="M0 0 C1.65 0 3.3 0 5 0 C3.35 1.65 1.7 3.3 0 5 C-0.66 4.67 -1.32 4.34 -2 4 C-1.34 2.68 -0.68 1.36 0 0 Z " fill="#2B84E5" transform="translate(219,259)"/>
<path d="M0 0 C0.99 0 1.98 0 3 0 C2.67 1.65 2.34 3.3 2 5 C1.01 5 0.02 5 -1 5 C-0.67 3.35 -0.34 1.7 0 0 Z " fill="#19BAF8" transform="translate(749,745)"/>
<path d="M0 0 C-0.66 1.32 -1.32 2.64 -2 4 C-4.64 3.67 -7.28 3.34 -10 3 C-10 2.67 -10 2.34 -10 2 C-8.7090864 1.66376204 -7.41723903 1.33110751 -6.125 1 C-5.40570312 0.814375 -4.68640625 0.62875 -3.9453125 0.4375 C-2 0 -2 0 0 0 Z " fill="#37BFFA" transform="translate(749,745)"/>
<path d="M0 0 C0.33 0.99 0.66 1.98 1 3 C2.65 3.33 4.3 3.66 6 4 C6 4.33 6 4.66 6 5 C3.36 5 0.72 5 -2 5 C-2 3.68 -2 2.36 -2 1 C-1.34 0.67 -0.68 0.34 0 0 Z " fill="#1DB4FA" transform="translate(258,707)"/>
<path d="M0 0 C1.9375 0.6875 1.9375 0.6875 4 2 C4.75 4.625 4.75 4.625 5 7 C3.29115995 5.37660195 1.62553283 3.70680947 0 2 C0 1.34 0 0.68 0 0 Z " fill="#DFF3FD" transform="translate(262,707)"/>
<path d="M0 0 C0.77772405 2.33317216 1.42415568 4.61435923 2 7 C1.01 7.33 0.02 7.66 -1 8 C-1 7.01 -1 6.02 -1 5 C-1.66 4.67 -2.32 4.34 -3 4 C-2.01 2.68 -1.02 1.36 0 0 Z " fill="#2DB8F3" transform="translate(821,700)"/>
<path d="M0 0 C0.99 0.33 1.98 0.66 3 1 C3 2.65 3 4.3 3 6 C2.01 6.33 1.02 6.66 0 7 C-1.04449911 3.86650268 -0.93423645 3.01031744 0 0 Z " fill="#F5E30A" transform="translate(213,553)"/>
<path d="M0 0 C2.52588702 2.36292656 3.88820837 3.66462511 5 7 C4.01 7.495 4.01 7.495 3 8 C1.5 6.8125 1.5 6.8125 0 5 C-0.1875 2.3125 -0.1875 2.3125 0 0 Z " fill="#30A3E0" transform="translate(177,519)"/>
<path d="M0 0 C3.36720387 1.39332574 4.9859524 2.9789286 7 6 C5.35 5.67 3.7 5.34 2 5 C2 4.01 2 3.02 2 2 C1.34 2 0.68 2 0 2 C0 1.34 0 0.68 0 0 Z " fill="#C0E6FC" transform="translate(806,473)"/>
<path d="M0 0 C0 0.99 0 1.98 0 3 C1.32 3.33 2.64 3.66 4 4 C2 5 2 5 -1.125 4.0625 C-2.07375 3.711875 -3.0225 3.36125 -4 3 C-4 2.34 -4 1.68 -4 1 C-2 0 -2 0 0 0 Z " fill="#2F98EF" transform="translate(754,440)"/>
<path d="M0 0 C0.66 0.33 1.32 0.66 2 1 C2 1.66 2 2.32 2 3 C1.01 3 0.02 3 -1 3 C-1.66 4.32 -2.32 5.64 -3 7 C-3 5.02 -3 3.04 -3 1 C-2.01 0.67 -1.02 0.34 0 0 Z " fill="#F1D60D" transform="translate(150,391)"/>
<path d="M0 0 C0 1.65 0 3.3 0 5 C-3.875 3.25 -3.875 3.25 -5 1 C-3 0 -3 0 0 0 Z " fill="#1D7FF2" transform="translate(480,272)"/>
<path d="M0 0 C-2.96687001 1.64826111 -5.65626525 2.44271087 -9 3 C-9.33 2.34 -9.66 1.68 -10 1 C-6.78548731 -0.60725635 -3.56387464 -0.05748185 0 0 Z " fill="#3C87D1" transform="translate(282,230)"/>
</svg>
